;TYPE=PLATED
;Layer: PTH_Through
;EasyEDA Pro Client v2.1.63.af010a1c.225d47, 2024-07-27 17:45:37
;Gerber Generator version 0.3
M48
METRIC,LZ,000.00000
;Hole size 1 = 0.70002 METRIC
T01C0.70002
;Hole size 2 = 1.10000 METRIC
T02C1.10000
;Hole size 3 = 1.19990 METRIC
T03C1.19990
;Hole size 4 = 1.20000 METRIC
T04C1.20000
;Hole size 5 = 1.20000 METRIC
T05C1.20000
;Hole size 6 = 1.50000 METRIC
T06C1.50000
;Hole size 7 = 1.70002 METRIC
T07C1.70002
;Hole size 8 = 1.80000 METRIC
T08C1.80000
;Hole size 9 = 1.80000 METRIC
T09C1.80000
;Hole size 10 = 4.00000 METRIC
T10C4.00000
%
G05
G90
T01
X12979400Y06259500
X12979400Y06059500
X12687300Y08218500
X12687300Y08418500
T02
X08013700Y09080500
X08013700Y08572500
X08013700Y08064500
X08013700Y07556500
X08013700Y07048500
X08013700Y06540500
X10553700Y09080500
X10553700Y08572500
X10553700Y08064500
X10553700Y07556500
X10553700Y07048500
X10553700Y06540500
T03
X12369800Y07239013
X12369800Y06731013
X12001500Y09321813
X12001500Y08813813
T04
X13792695Y06819913
X13791695Y06565913
X13792695Y07073913
X11353800Y07640800G85X11353800Y07700800
X11353800Y07132800G85X11353800Y07192800
X11353800Y06624800G85X11353800Y06684800
X11353800Y06116800G85X11353800Y06176800
T05
X13792205Y08750297
X13792205Y08496297
X13792205Y09004297G85X13792205Y09004297
X07067800Y08451000
X05987800Y09271000
X07067800Y09271000
X05987800Y08451000
X09819200Y05188900
X10894200Y05188900
X09819200Y01338900
X10619200Y01338900
X12537000Y05201600
X13612000Y05201600
X12537000Y01351600
X13337000Y01351600
T06
X06858000Y01790700
X07670800Y04254500
X06593667Y01797181
X07793664Y01797181
X08575599Y04254500
X07375601Y04254500
T07
X03721100Y00736600
X04229100Y00736600
X04940300Y00723900
X05448300Y00723900
X10109200Y00393700
X10617200Y00393700
X13246100Y00406400
X13754100Y00406400
T08
X01686789Y00571510
X02082790Y00571510
X02478789Y00571510
X08405089Y00508010
X08801090Y00508010
X09197089Y00508010
X11338789Y00406410
X11734790Y00406410
X12130789Y00406410
T09
X00853100Y02678300
X02373100Y02678300
X04053100Y02678300
X05573100Y02678300
X02373100Y08218300
X00853100Y08218300
X05573100Y08218300
X04053100Y08218300
T10
X00375000Y09225000
X00375000Y00470000
X14590000Y00470000
X14590000Y09225000
M30