G04 Layer: DrillDrawingLayer*
G04 EasyEDA Pro v2.1.63.af010a1c.225d47, 2024-07-27 17:45:37*
G04 Gerber Generator version 0.3*
G04 Scale: 100 percent, Rotated: No, Reflected: No*
G04 Dimensions in millimeters*
G04 Leading zeros omitted, absolute positions, 3 integers and 5 decimals*
%FSLAX35Y35*%
%MOMM*%
%ADD10C,0.0254*%
G75*


G04 Image Start*
G36*
G01X13772286Y9024214D02*
G01X13772286Y9020607D01*
G01X13775893D01*
G01X13808507D01*
G01Y8987993D01*
G01X13775893D01*
G01Y9020607D01*
G01X13772286D01*
G01Y8984336D01*
G01X13812164D01*
G01Y9024214D01*
G37*
G36*
G01X3213100Y8793226D02*
G01X3211068Y8793124D01*
G01X3209087Y8792820D01*
G01X3207156Y8792362D01*
G01X3205328Y8791651D01*
G01X3203600Y8790838D01*
G01X3201975Y8789822D01*
G01X3200400Y8788705D01*
G01X3198978Y8787384D01*
G01X3197708Y8785962D01*
G01X3196590Y8784438D01*
G01X3195574Y8782812D01*
G01X3194710Y8781085D01*
G01X3194050Y8779205D01*
G01X3193542Y8777326D01*
G01X3193288Y8775344D01*
G01X3193186Y8773312D01*
G01X3196488D01*
G01X3196590Y8774989D01*
G01X3196844Y8776665D01*
G01X3197250Y8778240D01*
G01X3197809Y8779764D01*
G01X3198470Y8781237D01*
G01X3199333Y8782609D01*
G01X3200298Y8783879D01*
G01X3201365Y8785047D01*
G01X3202534Y8786114D01*
G01X3203804Y8787079D01*
G01X3205175Y8787892D01*
G01X3206648Y8788603D01*
G01X3208172Y8789162D01*
G01X3209747Y8789568D01*
G01X3211424Y8789822D01*
G01X3213100Y8789924D01*
G01X3214776Y8789822D01*
G01X3216453Y8789568D01*
G01X3218028Y8789162D01*
G01X3219552Y8788603D01*
G01X3221025Y8787892D01*
G01X3222396Y8787079D01*
G01X3223666Y8786114D01*
G01X3224835Y8785047D01*
G01X3225902Y8783879D01*
G01X3226867Y8782609D01*
G01X3227730Y8781237D01*
G01X3228391Y8779764D01*
G01X3228950Y8778240D01*
G01X3229356Y8776665D01*
G01X3229610Y8774989D01*
G01X3229712Y8773312D01*
G01X3229610Y8771585D01*
G01X3229356Y8769960D01*
G01X3228950Y8768385D01*
G01X3228391Y8766861D01*
G01X3227730Y8765388D01*
G01X3226867Y8764016D01*
G01X3225902Y8762746D01*
G01X3224835Y8761578D01*
G01X3223666Y8760460D01*
G01X3222396Y8759546D01*
G01X3221025Y8758682D01*
G01X3219552Y8757971D01*
G01X3218028Y8757412D01*
G01X3216453Y8757006D01*
G01X3214776Y8756752D01*
G01X3213100Y8756701D01*
G01X3211424Y8756752D01*
G01X3209747Y8757006D01*
G01X3208172Y8757412D01*
G01X3206648Y8757971D01*
G01X3205175Y8758682D01*
G01X3203804Y8759546D01*
G01X3202534Y8760460D01*
G01X3201365Y8761578D01*
G01X3200298Y8762746D01*
G01X3199333Y8764016D01*
G01X3198470Y8765388D01*
G01X3197809Y8766861D01*
G01X3197250Y8768385D01*
G01X3196844Y8769960D01*
G01X3196590Y8771585D01*
G01X3196488Y8773312D01*
G01X3193186D01*
G01X3193288Y8771280D01*
G01X3193542Y8769299D01*
G01X3194050Y8767369D01*
G01X3194710Y8765540D01*
G01X3195574Y8763813D01*
G01X3196590Y8762136D01*
G01X3197708Y8760612D01*
G01X3198978Y8759190D01*
G01X3200400Y8757920D01*
G01X3201975Y8756752D01*
G01X3203600Y8755786D01*
G01X3205328Y8754923D01*
G01X3207156Y8754262D01*
G01X3209087Y8753754D01*
G01X3211068Y8753450D01*
G01X3213100Y8753348D01*
G01X3215132Y8753450D01*
G01X3217113Y8753754D01*
G01X3219044Y8754262D01*
G01X3220872Y8754923D01*
G01X3222600Y8755786D01*
G01X3224225Y8756752D01*
G01X3225800Y8757920D01*
G01X3227222Y8759190D01*
G01X3228492Y8760612D01*
G01X3229610Y8762136D01*
G01X3230626Y8763813D01*
G01X3231490Y8765540D01*
G01X3232150Y8767369D01*
G01X3232658Y8769299D01*
G01X3232912Y8771280D01*
G01X3233064Y8773312D01*
G01X3232912Y8775344D01*
G01X3232658Y8777326D01*
G01X3232150Y8779205D01*
G01X3231490Y8781085D01*
G01X3230626Y8782812D01*
G01X3229610Y8784438D01*
G01X3228492Y8785962D01*
G01X3227222Y8787384D01*
G01X3225800Y8788705D01*
G01X3224225Y8789822D01*
G01X3222600Y8790838D01*
G01X3220872Y8791651D01*
G01X3219044Y8792362D01*
G01X3217113Y8792820D01*
G01X3215132Y8793124D01*
G37*
G36*
G01X3213100Y2143252D02*
G01X3211068Y2143150D01*
G01X3209087Y2142846D01*
G01X3207156Y2142338D01*
G01X3205328Y2141677D01*
G01X3203600Y2140814D01*
G01X3201975Y2139848D01*
G01X3200400Y2138680D01*
G01X3198978Y2137410D01*
G01X3197708Y2135988D01*
G01X3196590Y2134464D01*
G01X3195574Y2132787D01*
G01X3194710Y2131060D01*
G01X3194050Y2129231D01*
G01X3193542Y2127301D01*
G01X3193288Y2125320D01*
G01X3193186Y2123288D01*
G01X3196488D01*
G01X3196590Y2125015D01*
G01X3196844Y2126640D01*
G01X3197250Y2128215D01*
G01X3197809Y2129739D01*
G01X3198470Y2131212D01*
G01X3199333Y2132584D01*
G01X3200298Y2133854D01*
G01X3201365Y2135022D01*
G01X3202534Y2136140D01*
G01X3203804Y2137054D01*
G01X3205175Y2137918D01*
G01X3206648Y2138629D01*
G01X3208172Y2139188D01*
G01X3209747Y2139594D01*
G01X3211424Y2139848D01*
G01X3213100Y2139899D01*
G01X3214776Y2139848D01*
G01X3216453Y2139594D01*
G01X3218028Y2139188D01*
G01X3219552Y2138629D01*
G01X3221025Y2137918D01*
G01X3222396Y2137054D01*
G01X3223666Y2136140D01*
G01X3224835Y2135022D01*
G01X3225902Y2133854D01*
G01X3226867Y2132584D01*
G01X3227730Y2131212D01*
G01X3228391Y2129739D01*
G01X3228950Y2128215D01*
G01X3229356Y2126640D01*
G01X3229610Y2125015D01*
G01X3229712Y2123288D01*
G01X3229610Y2121611D01*
G01X3229356Y2119935D01*
G01X3228950Y2118360D01*
G01X3228391Y2116836D01*
G01X3227730Y2115363D01*
G01X3226867Y2113991D01*
G01X3225902Y2112721D01*
G01X3224835Y2111553D01*
G01X3223666Y2110486D01*
G01X3222396Y2109521D01*
G01X3221025Y2108708D01*
G01X3219552Y2107997D01*
G01X3218028Y2107438D01*
G01X3216453Y2107032D01*
G01X3214776Y2106778D01*
G01X3213100Y2106676D01*
G01X3211424Y2106778D01*
G01X3209747Y2107032D01*
G01X3208172Y2107438D01*
G01X3206648Y2107997D01*
G01X3205175Y2108708D01*
G01X3203804Y2109521D01*
G01X3202534Y2110486D01*
G01X3201365Y2111553D01*
G01X3200298Y2112721D01*
G01X3199333Y2113991D01*
G01X3198470Y2115363D01*
G01X3197809Y2116836D01*
G01X3197250Y2118360D01*
G01X3196844Y2119935D01*
G01X3196590Y2121611D01*
G01X3196488Y2123288D01*
G01X3193186D01*
G01X3193288Y2121256D01*
G01X3193542Y2119274D01*
G01X3194050Y2117395D01*
G01X3194710Y2115515D01*
G01X3195574Y2113788D01*
G01X3196590Y2112162D01*
G01X3197708Y2110638D01*
G01X3198978Y2109216D01*
G01X3200400Y2107895D01*
G01X3201975Y2106778D01*
G01X3203600Y2105762D01*
G01X3205328Y2104949D01*
G01X3207156Y2104238D01*
G01X3209087Y2103780D01*
G01X3211068Y2103476D01*
G01X3213100Y2103374D01*
G01X3215132Y2103476D01*
G01X3217113Y2103780D01*
G01X3219044Y2104238D01*
G01X3220872Y2104949D01*
G01X3222600Y2105762D01*
G01X3224225Y2106778D01*
G01X3225800Y2107895D01*
G01X3227222Y2109216D01*
G01X3228492Y2110638D01*
G01X3229610Y2112162D01*
G01X3230626Y2113788D01*
G01X3231490Y2115515D01*
G01X3232150Y2117395D01*
G01X3232658Y2119274D01*
G01X3232912Y2121256D01*
G01X3233064Y2123288D01*
G01X3232912Y2125320D01*
G01X3232658Y2127301D01*
G01X3232150Y2129231D01*
G01X3231490Y2131060D01*
G01X3230626Y2132787D01*
G01X3229610Y2134464D01*
G01X3228492Y2135988D01*
G01X3227222Y2137410D01*
G01X3225800Y2138680D01*
G01X3224225Y2139848D01*
G01X3222600Y2140814D01*
G01X3220872Y2141677D01*
G01X3219044Y2142338D01*
G01X3217113Y2142846D01*
G01X3215132Y2143150D01*
G37*
G36*
G01X355041Y9242247D02*
G01X356972Y9238945D01*
G01X360832D01*
G01X389179D01*
G01X382067Y9226652D01*
G01X375006Y9214358D01*
G01X367894Y9226652D01*
G01X360832Y9238945D01*
G01X356972D01*
G01X365049Y9224975D01*
G01X375006Y9207754D01*
G01X384962Y9224975D01*
G01X394919Y9242247D01*
G37*
G36*
G01X355041Y487274D02*
G01X356972Y483921D01*
G01X360832D01*
G01X389179D01*
G01X382067Y471678D01*
G01X375006Y459384D01*
G01X367894Y471678D01*
G01X360832Y483921D01*
G01X356972D01*
G01X365049Y470002D01*
G01X375006Y452730D01*
G01X394919Y487274D01*
G37*
G36*
G01X14570050Y487274D02*
G01X14571980Y483921D01*
G01X14575841D01*
G01X14604187D01*
G01X14597075Y471678D01*
G01X14590014Y459384D01*
G01X14582902Y471678D01*
G01X14575841Y483921D01*
G01X14571980D01*
G01X14580006Y470002D01*
G01X14590014Y452730D01*
G01X14609928Y487274D01*
G37*
G36*
G01X14570050Y9242247D02*
G01X14571929Y9238945D01*
G01X14575841D01*
G01X14604187D01*
G01X14597075Y9226652D01*
G01X14590014Y9214358D01*
G01X14582902Y9226652D01*
G01X14575841Y9238945D01*
G01X14571929D01*
G01X14580006Y9224975D01*
G01X14590014Y9207754D01*
G01X14599971Y9224975D01*
G01X14609928Y9242247D01*
G37*
G36*
G01X11353800Y7693812D02*
G01X11348060Y7680757D01*
G01X11333886Y7682332D01*
G01X11342268Y7670800D01*
G01X11336985Y7663536D01*
G01X11341202D01*
G01X11345062Y7668768D01*
G01X11346536Y7670800D01*
G01X11345062Y7672832D01*
G01X11341202Y7678064D01*
G01X11347653Y7677404D01*
G01X11350142Y7677099D01*
G01X11351158Y7679385D01*
G01X11353800Y7685380D01*
G01X11356442Y7679385D01*
G01X11357458Y7677099D01*
G01X11359947Y7677353D01*
G01X11366398Y7678064D01*
G01X11362538Y7672832D01*
G01X11361064Y7670800D01*
G01X11362538Y7668768D01*
G01X11366398Y7663536D01*
G01X11359947Y7664196D01*
G01X11357458Y7664501D01*
G01X11356442Y7662215D01*
G01X11353800Y7656220D01*
G01X11351158Y7662215D01*
G01X11350142Y7664501D01*
G01X11347653Y7664196D01*
G01X11341202Y7663536D01*
G01X11336985D01*
G01X11333886Y7659268D01*
G01X11348060Y7660843D01*
G01X11353800Y7647788D01*
G01X11359540Y7660843D01*
G01X11373764Y7659268D01*
G01X11365332Y7670800D01*
G01X11373764Y7682332D01*
G01X11359540Y7680757D01*
G37*
G36*
G01X11353800Y7185812D02*
G01X11348060Y7172757D01*
G01X11333886Y7174332D01*
G01X11342268Y7162800D01*
G01X11336985Y7155536D01*
G01X11341202D01*
G01X11345062Y7160768D01*
G01X11346536Y7162800D01*
G01X11345062Y7164832D01*
G01X11341202Y7170064D01*
G01X11347653Y7169404D01*
G01X11350142Y7169099D01*
G01X11351158Y7171385D01*
G01X11353800Y7177380D01*
G01X11356442Y7171385D01*
G01X11357458Y7169099D01*
G01X11359947Y7169353D01*
G01X11366398Y7170064D01*
G01X11362538Y7164832D01*
G01X11361064Y7162800D01*
G01X11362538Y7160768D01*
G01X11366398Y7155536D01*
G01X11359947Y7156196D01*
G01X11357458Y7156501D01*
G01X11356442Y7154215D01*
G01X11353800Y7148220D01*
G01X11351158Y7154215D01*
G01X11350142Y7156501D01*
G01X11347653Y7156196D01*
G01X11341202Y7155536D01*
G01X11336985D01*
G01X11333886Y7151268D01*
G01X11348060Y7152843D01*
G01X11353800Y7139788D01*
G01X11359540Y7152843D01*
G01X11373764Y7151268D01*
G01X11365332Y7162800D01*
G01X11373764Y7174332D01*
G01X11359540Y7172757D01*
G37*
G36*
G01X11353800Y6677812D02*
G01X11348060Y6664757D01*
G01X11333886Y6666332D01*
G01X11342268Y6654800D01*
G01X11336985Y6647536D01*
G01X11341202D01*
G01X11345062Y6652768D01*
G01X11346536Y6654800D01*
G01X11345062Y6656832D01*
G01X11341202Y6662064D01*
G01X11347653Y6661404D01*
G01X11350142Y6661099D01*
G01X11351158Y6663385D01*
G01X11353800Y6669380D01*
G01X11356442Y6663385D01*
G01X11357458Y6661099D01*
G01X11359947Y6661353D01*
G01X11366398Y6662064D01*
G01X11362538Y6656832D01*
G01X11361064Y6654800D01*
G01X11362538Y6652768D01*
G01X11366398Y6647536D01*
G01X11359947Y6648196D01*
G01X11357458Y6648501D01*
G01X11356442Y6646215D01*
G01X11353800Y6640220D01*
G01X11351158Y6646215D01*
G01X11350142Y6648501D01*
G01X11347653Y6648196D01*
G01X11341202Y6647536D01*
G01X11336985D01*
G01X11333886Y6643268D01*
G01X11348060Y6644843D01*
G01X11353800Y6631788D01*
G01X11359540Y6644843D01*
G01X11373764Y6643268D01*
G01X11365332Y6654800D01*
G01X11373764Y6666332D01*
G01X11359540Y6664757D01*
G37*
G36*
G01X11353800Y6169812D02*
G01X11348060Y6156757D01*
G01X11333886Y6158332D01*
G01X11342268Y6146800D01*
G01X11336985Y6139536D01*
G01X11341202D01*
G01X11345062Y6144768D01*
G01X11346536Y6146800D01*
G01X11345062Y6148832D01*
G01X11341202Y6154064D01*
G01X11347653Y6153404D01*
G01X11350142Y6153099D01*
G01X11351158Y6155385D01*
G01X11353800Y6161380D01*
G01X11356442Y6155385D01*
G01X11357458Y6153099D01*
G01X11359947Y6153353D01*
G01X11366398Y6154064D01*
G01X11362538Y6148832D01*
G01X11361064Y6146800D01*
G01X11362538Y6144768D01*
G01X11366398Y6139536D01*
G01X11359947Y6140196D01*
G01X11357458Y6140501D01*
G01X11356442Y6138215D01*
G01X11353800Y6132220D01*
G01X11351158Y6138215D01*
G01X11350142Y6140501D01*
G01X11347653Y6140196D01*
G01X11341202Y6139536D01*
G01X11336985D01*
G01X11333886Y6135268D01*
G01X11348060Y6136843D01*
G01X11353800Y6123788D01*
G01X11359540Y6136843D01*
G01X11373764Y6135268D01*
G01X11365332Y6146800D01*
G01X11373764Y6158332D01*
G01X11359540Y6156757D01*
G37*
G36*
G01X12959486Y6279439D02*
G01X12962585Y6272682D01*
G01X12966243D01*
G01X12978028Y6267247D01*
G01X12979400Y6266637D01*
G01X12980772Y6267247D01*
G01X12992557Y6272682D01*
G01X12987172Y6260897D01*
G01X12986512Y6259525D01*
G01X12987172Y6258103D01*
G01X12992557Y6246317D01*
G01X12980772Y6251753D01*
G01X12979400Y6252362D01*
G01X12978028Y6251753D01*
G01X12966243Y6246317D01*
G01X12971628Y6258103D01*
G01X12972288Y6259525D01*
G01X12971628Y6260897D01*
G01X12966243Y6272682D01*
G01X12962585D01*
G01X12968630Y6259525D01*
G01X12959486Y6239561D01*
G01X12979400Y6248705D01*
G01X12999314Y6239561D01*
G01X12990170Y6259525D01*
G01X12999314Y6279439D01*
G01X12979400Y6270295D01*
G37*
G36*
G01X12959486Y6079439D02*
G01X12962585Y6072683D01*
G01X12966243D01*
G01X12978028Y6067247D01*
G01X12979400Y6066638D01*
G01X12980772Y6067247D01*
G01X12992557Y6072683D01*
G01X12987172Y6060897D01*
G01X12986512Y6059526D01*
G01X12987172Y6058103D01*
G01X12992557Y6046318D01*
G01X12980772Y6051753D01*
G01X12979400Y6052363D01*
G01X12978028Y6051753D01*
G01X12966243Y6046318D01*
G01X12971628Y6058103D01*
G01X12972288Y6059526D01*
G01X12971628Y6060897D01*
G01X12966243Y6072683D01*
G01X12962585D01*
G01X12968630Y6059526D01*
G01X12959486Y6039561D01*
G01X12979400Y6048705D01*
G01X12999314Y6039561D01*
G01X12990170Y6059526D01*
G01X12999314Y6079439D01*
G01X12979400Y6070295D01*
G37*
G36*
G01X12667386Y8238439D02*
G01X12670485Y8231683D01*
G01X12674143D01*
G01X12685928Y8226247D01*
G01X12687300Y8225638D01*
G01X12688672Y8226247D01*
G01X12700457Y8231683D01*
G01X12695072Y8219897D01*
G01X12694412Y8218526D01*
G01X12695072Y8217103D01*
G01X12700457Y8205318D01*
G01X12688672Y8210753D01*
G01X12687300Y8211363D01*
G01X12685928Y8210753D01*
G01X12674143Y8205318D01*
G01X12679528Y8217103D01*
G01X12680188Y8218526D01*
G01X12679528Y8219897D01*
G01X12674143Y8231683D01*
G01X12670485D01*
G01X12676530Y8218526D01*
G01X12667386Y8198561D01*
G01X12687300Y8207705D01*
G01X12707214Y8198561D01*
G01X12698070Y8218526D01*
G01X12707214Y8238439D01*
G01X12687300Y8229295D01*
G37*
G36*
G01X12667386Y8438439D02*
G01X12670485Y8431682D01*
G01X12674143D01*
G01X12685928Y8426247D01*
G01X12687300Y8425637D01*
G01X12688672Y8426247D01*
G01X12700457Y8431682D01*
G01X12695072Y8419897D01*
G01X12694412Y8418525D01*
G01X12695072Y8417103D01*
G01X12700457Y8405317D01*
G01X12688672Y8410753D01*
G01X12687300Y8411362D01*
G01X12685928Y8410753D01*
G01X12674143Y8405317D01*
G01X12679528Y8417103D01*
G01X12680188Y8418525D01*
G01X12679528Y8419897D01*
G01X12674143Y8431682D01*
G01X12670485D01*
G01X12676530Y8418525D01*
G01X12667386Y8398561D01*
G01X12687300Y8407705D01*
G01X12707214Y8398561D01*
G01X12698070Y8418525D01*
G01X12707214Y8438439D01*
G01X12687300Y8429295D01*
G37*
G36*
G01X6848958Y1810664D02*
G01X6848958Y1799742D01*
G01X6838086D01*
G01Y1784960D01*
G01X6841388D01*
G01Y1796440D01*
G01X6852260D01*
G01Y1807312D01*
G01X6863740D01*
G01Y1796440D01*
G01X6874612D01*
G01Y1784960D01*
G01X6863740D01*
G01Y1774088D01*
G01X6852260D01*
G01Y1784960D01*
G01X6841388D01*
G01X6838086D01*
G01Y1781658D01*
G01X6848958D01*
G01Y1770786D01*
G01X6867042D01*
G01Y1781658D01*
G01X6877914D01*
G01Y1799742D01*
G01X6867042D01*
G01Y1810664D01*
G37*
G36*
G01X7661758Y4274464D02*
G01X7661758Y4263542D01*
G01X7650886D01*
G01Y4248760D01*
G01X7654188D01*
G01Y4260240D01*
G01X7665060D01*
G01Y4271112D01*
G01X7676540D01*
G01Y4260240D01*
G01X7687412D01*
G01Y4248760D01*
G01X7676540D01*
G01Y4237888D01*
G01X7665060D01*
G01Y4248760D01*
G01X7654188D01*
G01X7650886D01*
G01Y4245458D01*
G01X7661758D01*
G01Y4234536D01*
G01X7679842D01*
G01Y4245458D01*
G01X7690714D01*
G01Y4263542D01*
G01X7679842D01*
G01Y4274464D01*
G37*
G36*
G01X6584594Y1817116D02*
G01X6584594Y1806245D01*
G01X6573723D01*
G01Y1791462D01*
G01X6577076D01*
G01Y1802943D01*
G01X6587947D01*
G01Y1813814D01*
G01X6599428D01*
G01Y1802943D01*
G01X6610299D01*
G01Y1791462D01*
G01X6599428D01*
G01Y1780591D01*
G01X6587947D01*
G01Y1791462D01*
G01X6577076D01*
G01X6573723D01*
G01Y1788109D01*
G01X6584594D01*
G01Y1777238D01*
G01X6602730D01*
G01Y1788109D01*
G01X6613601D01*
G01Y1806245D01*
G01X6602730D01*
G01Y1817116D01*
G37*
G36*
G01X7784592Y1817116D02*
G01X7784592Y1806245D01*
G01X7773721D01*
G01Y1791462D01*
G01X7777074D01*
G01Y1802943D01*
G01X7787945D01*
G01Y1813814D01*
G01X7799426D01*
G01Y1802943D01*
G01X7810297D01*
G01Y1791462D01*
G01X7799426D01*
G01Y1780591D01*
G01X7787945D01*
G01Y1791462D01*
G01X7777074D01*
G01X7773721D01*
G01Y1788109D01*
G01X7784592D01*
G01Y1777238D01*
G01X7802728D01*
G01Y1788109D01*
G01X7813599D01*
G01Y1806245D01*
G01X7802728D01*
G01Y1817116D01*
G37*
G36*
G01X8566556Y4274464D02*
G01X8566556Y4263542D01*
G01X8555685D01*
G01Y4248760D01*
G01X8558987D01*
G01Y4260240D01*
G01X8569858D01*
G01Y4271112D01*
G01X8581339D01*
G01Y4260240D01*
G01X8592210D01*
G01Y4248760D01*
G01X8581339D01*
G01Y4237888D01*
G01X8569858D01*
G01Y4248760D01*
G01X8558987D01*
G01X8555685D01*
G01Y4245458D01*
G01X8566556D01*
G01Y4234536D01*
G01X8584641D01*
G01Y4245458D01*
G01X8595563D01*
G01Y4263542D01*
G01X8584641D01*
G01Y4274464D01*
G37*
G36*
G01X7366559Y4274464D02*
G01X7366559Y4263542D01*
G01X7355637D01*
G01Y4248760D01*
G01X7358990D01*
G01Y4260240D01*
G01X7369861D01*
G01Y4271112D01*
G01X7381342D01*
G01Y4260240D01*
G01X7392213D01*
G01Y4248760D01*
G01X7381342D01*
G01Y4237888D01*
G01X7369861D01*
G01Y4248760D01*
G01X7358990D01*
G01X7355637D01*
G01Y4245458D01*
G01X7366559D01*
G01Y4234536D01*
G01X7384644D01*
G01Y4245458D01*
G01X7395515D01*
G01Y4263542D01*
G01X7384644D01*
G01Y4274464D01*
G37*
G36*
G01X3701136Y756564D02*
G01X3701136Y752907D01*
G01X3704793D01*
G01X3713429D01*
G01X3721100Y737565D01*
G01X3728771Y752907D01*
G01X3737407D01*
G01Y744271D01*
G01X3722065Y736600D01*
G01X3737407Y728929D01*
G01Y720293D01*
G01X3728771D01*
G01X3721100Y735635D01*
G01X3713429Y720293D01*
G01X3704793D01*
G01Y728929D01*
G01X3720135Y736600D01*
G01X3704793Y744271D01*
G01Y752907D01*
G01X3701136D01*
G01Y742036D01*
G01X3712058Y736600D01*
G01X3701136Y731164D01*
G01Y716686D01*
G01X3715664D01*
G01X3721100Y727558D01*
G01X3726536Y716686D01*
G01X3741064D01*
G01Y731164D01*
G01X3730142Y736600D01*
G01X3741064Y742036D01*
G01Y756564D01*
G01X3726536D01*
G01X3721100Y745642D01*
G01X3715664Y756564D01*
G37*
G36*
G01X4209136Y756564D02*
G01X4209136Y752907D01*
G01X4212793D01*
G01X4221429D01*
G01X4229100Y737565D01*
G01X4236771Y752907D01*
G01X4245407D01*
G01Y744271D01*
G01X4230065Y736600D01*
G01X4245407Y728929D01*
G01Y720293D01*
G01X4236771D01*
G01X4229100Y735635D01*
G01X4221429Y720293D01*
G01X4212793D01*
G01Y728929D01*
G01X4228135Y736600D01*
G01X4212793Y744271D01*
G01Y752907D01*
G01X4209136D01*
G01Y742036D01*
G01X4220058Y736600D01*
G01X4209136Y731164D01*
G01Y716686D01*
G01X4223664D01*
G01X4229100Y727558D01*
G01X4234536Y716686D01*
G01X4249064D01*
G01Y731164D01*
G01X4238142Y736600D01*
G01X4249064Y742036D01*
G01Y756564D01*
G01X4234536D01*
G01X4229100Y745642D01*
G01X4223664Y756564D01*
G37*
G36*
G01X4920336Y743864D02*
G01X4920336Y740207D01*
G01X4923993D01*
G01X4932629D01*
G01X4940300Y724865D01*
G01X4947971Y740207D01*
G01X4956607D01*
G01Y731571D01*
G01X4941265Y723900D01*
G01X4956607Y716229D01*
G01Y707593D01*
G01X4947971D01*
G01X4940300Y722935D01*
G01X4932629Y707593D01*
G01X4923993D01*
G01Y716229D01*
G01X4939335Y723900D01*
G01X4923993Y731571D01*
G01Y740207D01*
G01X4920336D01*
G01Y729336D01*
G01X4931258Y723900D01*
G01X4920336Y718464D01*
G01Y703986D01*
G01X4934864D01*
G01X4940300Y714858D01*
G01X4945736Y703986D01*
G01X4960264D01*
G01Y718464D01*
G01X4949342Y723900D01*
G01X4960264Y729336D01*
G01Y743864D01*
G01X4945736D01*
G01X4940300Y732942D01*
G01X4934864Y743864D01*
G37*
G36*
G01X5428336Y743864D02*
G01X5428336Y740207D01*
G01X5431993D01*
G01X5440629D01*
G01X5448300Y724865D01*
G01X5455971Y740207D01*
G01X5464607D01*
G01Y731571D01*
G01X5449265Y723900D01*
G01X5464607Y716229D01*
G01Y707593D01*
G01X5455971D01*
G01X5448300Y722935D01*
G01X5440629Y707593D01*
G01X5431993D01*
G01Y716229D01*
G01X5447335Y723900D01*
G01X5431993Y731571D01*
G01Y740207D01*
G01X5428336D01*
G01Y729336D01*
G01X5439258Y723900D01*
G01X5428336Y718464D01*
G01Y703986D01*
G01X5442864D01*
G01X5448300Y714858D01*
G01X5453736Y703986D01*
G01X5468264D01*
G01Y718464D01*
G01X5457342Y723900D01*
G01X5468264Y729336D01*
G01Y743864D01*
G01X5453736D01*
G01X5448300Y732942D01*
G01X5442864Y743864D01*
G37*
G36*
G01X10089286Y413664D02*
G01X10089286Y410007D01*
G01X10092893D01*
G01X10101529D01*
G01X10109200Y394665D01*
G01X10116871Y410007D01*
G01X10125507D01*
G01Y401371D01*
G01X10110165Y393700D01*
G01X10125507Y386029D01*
G01Y377393D01*
G01X10116871D01*
G01X10109200Y392735D01*
G01X10101529Y377393D01*
G01X10092893D01*
G01Y386029D01*
G01X10108235Y393700D01*
G01X10092893Y401371D01*
G01Y410007D01*
G01X10089286D01*
G01Y399136D01*
G01X10100158Y393700D01*
G01X10089286Y388264D01*
G01Y373786D01*
G01X10103764D01*
G01X10109200Y384658D01*
G01X10114636Y373786D01*
G01X10129164D01*
G01Y388264D01*
G01X10118242Y393700D01*
G01X10129164Y399136D01*
G01Y413664D01*
G01X10114636D01*
G01X10109200Y402742D01*
G01X10103764Y413664D01*
G37*
G36*
G01X10597286Y413664D02*
G01X10597286Y410007D01*
G01X10600893D01*
G01X10609529D01*
G01X10617200Y394665D01*
G01X10624871Y410007D01*
G01X10633507D01*
G01Y401371D01*
G01X10618165Y393700D01*
G01X10633507Y386029D01*
G01Y377393D01*
G01X10624871D01*
G01X10617200Y392735D01*
G01X10609529Y377393D01*
G01X10600893D01*
G01Y386029D01*
G01X10616235Y393700D01*
G01X10600893Y401371D01*
G01Y410007D01*
G01X10597286D01*
G01Y399136D01*
G01X10608158Y393700D01*
G01X10597286Y388264D01*
G01Y373786D01*
G01X10611764D01*
G01X10617200Y384658D01*
G01X10622636Y373786D01*
G01X10637164D01*
G01Y388264D01*
G01X10626242Y393700D01*
G01X10637164Y399136D01*
G01Y413664D01*
G01X10622636D01*
G01X10617200Y402742D01*
G01X10611764Y413664D01*
G37*
G36*
G01X13226186Y426364D02*
G01X13226186Y422707D01*
G01X13229793D01*
G01X13238429D01*
G01X13246100Y407365D01*
G01X13253771Y422707D01*
G01X13262407D01*
G01Y414071D01*
G01X13247065Y406400D01*
G01X13262407Y398729D01*
G01Y390093D01*
G01X13253771D01*
G01X13246100Y405435D01*
G01X13238429Y390093D01*
G01X13229793D01*
G01Y398729D01*
G01X13245135Y406400D01*
G01X13229793Y414071D01*
G01Y422707D01*
G01X13226186D01*
G01Y411836D01*
G01X13237058Y406400D01*
G01X13226186Y400964D01*
G01Y386486D01*
G01X13240664D01*
G01X13246100Y397358D01*
G01X13251536Y386486D01*
G01X13266014D01*
G01Y400964D01*
G01X13255142Y406400D01*
G01X13266014Y411836D01*
G01Y426364D01*
G01X13251536D01*
G01X13246100Y415442D01*
G01X13240664Y426364D01*
G37*
G36*
G01X13734186Y426364D02*
G01X13734186Y422707D01*
G01X13737793D01*
G01X13746429D01*
G01X13754100Y407365D01*
G01X13761771Y422707D01*
G01X13770407D01*
G01Y414071D01*
G01X13755065Y406400D01*
G01X13770407Y398729D01*
G01Y390093D01*
G01X13761771D01*
G01X13754100Y405435D01*
G01X13746429Y390093D01*
G01X13737793D01*
G01Y398729D01*
G01X13753135Y406400D01*
G01X13737793Y414071D01*
G01Y422707D01*
G01X13734186D01*
G01Y411836D01*
G01X13745058Y406400D01*
G01X13734186Y400964D01*
G01Y386486D01*
G01X13748664D01*
G01X13754100Y397358D01*
G01X13759536Y386486D01*
G01X13774064D01*
G01Y400964D01*
G01X13763142Y406400D01*
G01X13774064Y411836D01*
G01Y426364D01*
G01X13759536D01*
G01X13754100Y415442D01*
G01X13748664Y426364D01*
G37*
G36*
G01X8013700Y9100464D02*
G01X7993786Y9080500D01*
G01X7998104D01*
G01X8013700Y9096096D01*
G01X8029296Y9080500D01*
G01X8013700Y9064904D01*
G01X7998104Y9080500D01*
G01X7993786D01*
G01X8013700Y9060586D01*
G01X8033614Y9080500D01*
G37*
G36*
G01X8013700Y8592464D02*
G01X7993786Y8572500D01*
G01X7998104D01*
G01X8013700Y8588096D01*
G01X8029296Y8572500D01*
G01X8013700Y8556904D01*
G01X7998104Y8572500D01*
G01X7993786D01*
G01X8013700Y8552586D01*
G01X8033614Y8572500D01*
G37*
G36*
G01X8013700Y8084464D02*
G01X7993786Y8064500D01*
G01X7998104D01*
G01X8013700Y8080096D01*
G01X8029296Y8064500D01*
G01X8013700Y8048904D01*
G01X7998104Y8064500D01*
G01X7993786D01*
G01X8013700Y8044586D01*
G01X8033614Y8064500D01*
G37*
G36*
G01X8013700Y7576464D02*
G01X7993786Y7556500D01*
G01X7998104D01*
G01X8013700Y7572096D01*
G01X8029296Y7556500D01*
G01X8013700Y7540904D01*
G01X7998104Y7556500D01*
G01X7993786D01*
G01X8013700Y7536586D01*
G01X8033614Y7556500D01*
G37*
G36*
G01X8013700Y7068464D02*
G01X7993786Y7048500D01*
G01X7998104D01*
G01X8013700Y7064096D01*
G01X8029296Y7048500D01*
G01X8013700Y7032904D01*
G01X7998104Y7048500D01*
G01X7993786D01*
G01X8013700Y7028586D01*
G01X8033614Y7048500D01*
G37*
G36*
G01X8013700Y6560464D02*
G01X7993786Y6540500D01*
G01X7998104D01*
G01X8013700Y6556096D01*
G01X8029296Y6540500D01*
G01X8013700Y6524904D01*
G01X7998104Y6540500D01*
G01X7993786D01*
G01X8013700Y6520586D01*
G01X8033614Y6540500D01*
G37*
G36*
G01X10553700Y9100464D02*
G01X10533786Y9080500D01*
G01X10538104D01*
G01X10553700Y9096096D01*
G01X10569296Y9080500D01*
G01X10553700Y9064904D01*
G01X10538104Y9080500D01*
G01X10533786D01*
G01X10553700Y9060586D01*
G01X10573614Y9080500D01*
G37*
G36*
G01X10553700Y8592464D02*
G01X10533786Y8572500D01*
G01X10538104D01*
G01X10553700Y8588096D01*
G01X10569296Y8572500D01*
G01X10553700Y8556904D01*
G01X10538104Y8572500D01*
G01X10533786D01*
G01X10553700Y8552586D01*
G01X10573614Y8572500D01*
G37*
G36*
G01X10553700Y8084464D02*
G01X10533786Y8064500D01*
G01X10538104D01*
G01X10553700Y8080096D01*
G01X10569296Y8064500D01*
G01X10553700Y8048904D01*
G01X10538104Y8064500D01*
G01X10533786D01*
G01X10553700Y8044586D01*
G01X10573614Y8064500D01*
G37*
G36*
G01X10553700Y7576464D02*
G01X10533786Y7556500D01*
G01X10538104D01*
G01X10553700Y7572096D01*
G01X10569296Y7556500D01*
G01X10553700Y7540904D01*
G01X10538104Y7556500D01*
G01X10533786D01*
G01X10553700Y7536586D01*
G01X10573614Y7556500D01*
G37*
G36*
G01X10553700Y7068464D02*
G01X10533786Y7048500D01*
G01X10538104D01*
G01X10553700Y7064096D01*
G01X10569296Y7048500D01*
G01X10553700Y7032904D01*
G01X10538104Y7048500D01*
G01X10533786D01*
G01X10553700Y7028586D01*
G01X10573614Y7048500D01*
G37*
G36*
G01X10553700Y6560464D02*
G01X10533786Y6540500D01*
G01X10538104D01*
G01X10553700Y6556096D01*
G01X10569296Y6540500D01*
G01X10553700Y6524904D01*
G01X10538104Y6540500D01*
G01X10533786D01*
G01X10553700Y6520586D01*
G01X10573614Y6540500D01*
G37*
G36*
G01X1666850Y591464D02*
G01X1666850Y587807D01*
G01X1670456D01*
G01X1703121D01*
G01Y555193D01*
G01X1670456D01*
G01Y587807D01*
G01X1666850D01*
G01Y551586D01*
G01X1706728D01*
G01Y591464D01*
G37*
G36*
G01X1674114Y584200D02*
G01X1674114Y580593D01*
G01X1677721D01*
G01X1695856D01*
G01Y562458D01*
G01X1677721D01*
G01Y580593D01*
G01X1674114D01*
G01Y558800D01*
G01X1699463D01*
G01Y584200D01*
G37*
G36*
G01X2062836Y591464D02*
G01X2062836Y587807D01*
G01X2066493D01*
G01X2099107D01*
G01Y555193D01*
G01X2066493D01*
G01Y587807D01*
G01X2062836D01*
G01Y551586D01*
G01X2102714D01*
G01Y591464D01*
G37*
G36*
G01X2070100Y584200D02*
G01X2070100Y580593D01*
G01X2073707D01*
G01X2091842D01*
G01Y562458D01*
G01X2073707D01*
G01Y580593D01*
G01X2070100D01*
G01Y558800D01*
G01X2095500D01*
G01Y584200D01*
G37*
G36*
G01X2458872Y591464D02*
G01X2458872Y587807D01*
G01X2462479D01*
G01X2495093D01*
G01Y555193D01*
G01X2462479D01*
G01Y587807D01*
G01X2458872D01*
G01Y551586D01*
G01X2498750D01*
G01Y591464D01*
G37*
G36*
G01X2466086Y584200D02*
G01X2466086Y580593D01*
G01X2469744D01*
G01X2487828D01*
G01Y562458D01*
G01X2469744D01*
G01Y580593D01*
G01X2466086D01*
G01Y558800D01*
G01X2491486D01*
G01Y584200D01*
G37*
G36*
G01X8385150Y527964D02*
G01X8385150Y524307D01*
G01X8388756D01*
G01X8421421D01*
G01Y491693D01*
G01X8388756D01*
G01Y524307D01*
G01X8385150D01*
G01Y488086D01*
G01X8425028D01*
G01Y527964D01*
G37*
G36*
G01X8392414Y520700D02*
G01X8392414Y517093D01*
G01X8396021D01*
G01X8414156D01*
G01Y498958D01*
G01X8396021D01*
G01Y517093D01*
G01X8392414D01*
G01Y495300D01*
G01X8417763D01*
G01Y520700D01*
G37*
G36*
G01X8781136Y527964D02*
G01X8781136Y524307D01*
G01X8784793D01*
G01X8817407D01*
G01Y491693D01*
G01X8784793D01*
G01Y524307D01*
G01X8781136D01*
G01Y488086D01*
G01X8821014D01*
G01Y527964D01*
G37*
G36*
G01X8788400Y520700D02*
G01X8788400Y517093D01*
G01X8792007D01*
G01X8810142D01*
G01Y498958D01*
G01X8792007D01*
G01Y517093D01*
G01X8788400D01*
G01Y495300D01*
G01X8813800D01*
G01Y520700D01*
G37*
G36*
G01X9177172Y527964D02*
G01X9177172Y524307D01*
G01X9180779D01*
G01X9213393D01*
G01Y491693D01*
G01X9180779D01*
G01Y524307D01*
G01X9177172D01*
G01Y488086D01*
G01X9217050D01*
G01Y527964D01*
G37*
G36*
G01X9184386Y520700D02*
G01X9184386Y517093D01*
G01X9188044D01*
G01X9206128D01*
G01Y498958D01*
G01X9188044D01*
G01Y517093D01*
G01X9184386D01*
G01Y495300D01*
G01X9209786D01*
G01Y520700D01*
G37*
G36*
G01X11318850Y426364D02*
G01X11318850Y422707D01*
G01X11322456D01*
G01X11355121D01*
G01Y390093D01*
G01X11322456D01*
G01Y422707D01*
G01X11318850D01*
G01Y386486D01*
G01X11358728D01*
G01Y426364D01*
G37*
G36*
G01X11326114Y419100D02*
G01X11326114Y415493D01*
G01X11329721D01*
G01X11347856D01*
G01Y397358D01*
G01X11329721D01*
G01Y415493D01*
G01X11326114D01*
G01Y393700D01*
G01X11351463D01*
G01Y419100D01*
G37*
G36*
G01X11714836Y426364D02*
G01X11714836Y422707D01*
G01X11718493D01*
G01X11751107D01*
G01Y390093D01*
G01X11718493D01*
G01Y422707D01*
G01X11714836D01*
G01Y386486D01*
G01X11754714D01*
G01Y426364D01*
G37*
G36*
G01X11722100Y419100D02*
G01X11722100Y415493D01*
G01X11725707D01*
G01X11743842D01*
G01Y397358D01*
G01X11725707D01*
G01Y415493D01*
G01X11722100D01*
G01Y393700D01*
G01X11747500D01*
G01Y419100D01*
G37*
G36*
G01X12110872Y426364D02*
G01X12110872Y422707D01*
G01X12114479D01*
G01X12147093D01*
G01Y390093D01*
G01X12114479D01*
G01Y422707D01*
G01X12110872D01*
G01Y386486D01*
G01X12150750D01*
G01Y426364D01*
G37*
G36*
G01X12118086Y419100D02*
G01X12118086Y415493D01*
G01X12121744D01*
G01X12139828D01*
G01Y397358D01*
G01X12121744D01*
G01Y415493D01*
G01X12118086D01*
G01Y393700D01*
G01X12143486D01*
G01Y419100D01*
G37*
G36*
G01X833171Y2698242D02*
G01X833171Y2694635D01*
G01X836778D01*
G01X869391D01*
G01Y2661971D01*
G01X836778D01*
G01Y2694635D01*
G01X833171D01*
G01Y2658364D01*
G01X873049D01*
G01Y2698242D01*
G37*
G36*
G01X840435Y2690978D02*
G01X840435Y2687371D01*
G01X844042D01*
G01X862178D01*
G01Y2669235D01*
G01X844042D01*
G01Y2687371D01*
G01X840435D01*
G01Y2665628D01*
G01X865784D01*
G01Y2690978D01*
G37*
G36*
G01X2353158Y2698242D02*
G01X2353158Y2694635D01*
G01X2356764D01*
G01X2389429D01*
G01Y2661971D01*
G01X2356764D01*
G01Y2694635D01*
G01X2353158D01*
G01Y2658364D01*
G01X2393036D01*
G01Y2698242D01*
G37*
G36*
G01X2360422Y2690978D02*
G01X2360422Y2687371D01*
G01X2364029D01*
G01X2382164D01*
G01Y2669235D01*
G01X2364029D01*
G01Y2687371D01*
G01X2360422D01*
G01Y2665628D01*
G01X2385771D01*
G01Y2690978D01*
G37*
G36*
G01X4033164Y2698242D02*
G01X4033164Y2694635D01*
G01X4036771D01*
G01X4069436D01*
G01Y2661971D01*
G01X4036771D01*
G01Y2694635D01*
G01X4033164D01*
G01Y2658364D01*
G01X4073042D01*
G01Y2698242D01*
G37*
G36*
G01X4040429Y2690978D02*
G01X4040429Y2687371D01*
G01X4044036D01*
G01X4062171D01*
G01Y2669235D01*
G01X4044036D01*
G01Y2687371D01*
G01X4040429D01*
G01Y2665628D01*
G01X4065778D01*
G01Y2690978D01*
G37*
G36*
G01X5553151Y2698242D02*
G01X5553151Y2694635D01*
G01X5556809D01*
G01X5589422D01*
G01Y2661971D01*
G01X5556809D01*
G01Y2694635D01*
G01X5553151D01*
G01Y2658364D01*
G01X5593029D01*
G01Y2698242D01*
G37*
G36*
G01X5560416Y2690978D02*
G01X5560416Y2687371D01*
G01X5564022D01*
G01X5582158D01*
G01Y2669235D01*
G01X5564022D01*
G01Y2687371D01*
G01X5560416D01*
G01Y2665628D01*
G01X5585765D01*
G01Y2690978D01*
G37*
G36*
G01X2353158Y8238236D02*
G01X2353158Y8234629D01*
G01X2356764D01*
G01X2389429D01*
G01Y8201965D01*
G01X2356764D01*
G01Y8234629D01*
G01X2353158D01*
G01Y8198358D01*
G01X2393036D01*
G01Y8238236D01*
G37*
G36*
G01X2360422Y8230972D02*
G01X2360422Y8227365D01*
G01X2364029D01*
G01X2382164D01*
G01Y8209229D01*
G01X2364029D01*
G01Y8227365D01*
G01X2360422D01*
G01Y8205622D01*
G01X2385771D01*
G01Y8230972D01*
G37*
G36*
G01X833171Y8238236D02*
G01X833171Y8234629D01*
G01X836778D01*
G01X869391D01*
G01Y8201965D01*
G01X836778D01*
G01Y8234629D01*
G01X833171D01*
G01Y8198358D01*
G01X873049D01*
G01Y8238236D01*
G37*
G36*
G01X840435Y8230972D02*
G01X840435Y8227365D01*
G01X844042D01*
G01X862178D01*
G01Y8209229D01*
G01X844042D01*
G01Y8227365D01*
G01X840435D01*
G01Y8205622D01*
G01X865784D01*
G01Y8230972D01*
G37*
G36*
G01X5553151Y8238236D02*
G01X5553151Y8234629D01*
G01X5556809D01*
G01X5589422D01*
G01Y8201965D01*
G01X5556809D01*
G01Y8234629D01*
G01X5553151D01*
G01Y8198358D01*
G01X5593029D01*
G01Y8238236D01*
G37*
G36*
G01X5560416Y8230972D02*
G01X5560416Y8227365D01*
G01X5564022D01*
G01X5582158D01*
G01Y8209229D01*
G01X5564022D01*
G01Y8227365D01*
G01X5560416D01*
G01Y8205622D01*
G01X5585765D01*
G01Y8230972D01*
G37*
G36*
G01X4033164Y8238236D02*
G01X4033164Y8234629D01*
G01X4036771D01*
G01X4069436D01*
G01Y8201965D01*
G01X4036771D01*
G01Y8234629D01*
G01X4033164D01*
G01Y8198358D01*
G01X4073042D01*
G01Y8238236D01*
G37*
G36*
G01X4040429Y8230972D02*
G01X4040429Y8227365D01*
G01X4044036D01*
G01X4062171D01*
G01Y8209229D01*
G01X4044036D01*
G01Y8227365D01*
G01X4040429D01*
G01Y8205622D01*
G01X4065778D01*
G01Y8230972D01*
G37*

G04 Text Start*
G54D10*
G01X13792717Y6830990D02*
G01X13784248Y6808835D01*
G01X13792717Y6830990D02*
G01X13801142Y6808835D01*
G01X13787413Y6816235D02*
G01X13797977Y6816235D01*
G01X13791716Y6576990D02*
G01X13783248Y6554835D01*
G01X13791716Y6576990D02*
G01X13800141Y6554835D01*
G01X13786413Y6562235D02*
G01X13796977Y6562235D01*
G01X13792717Y7084990D02*
G01X13784248Y7062835D01*
G01X13792717Y7084990D02*
G01X13801142Y7062835D01*
G01X13787413Y7070235D02*
G01X13797977Y7070235D01*
G01X13792226Y8761375D02*
G01X13783758Y8739220D01*
G01X13792226Y8761375D02*
G01X13800652Y8739220D01*
G01X13786923Y8746619D02*
G01X13797487Y8746619D01*
G01X13792226Y8507375D02*
G01X13783758Y8485220D01*
G01X13792226Y8507375D02*
G01X13800652Y8485220D01*
G01X13786923Y8492619D02*
G01X13797487Y8492619D01*
G01X7067821Y8462077D02*
G01X7059353Y8439923D01*
G01X7067821Y8462077D02*
G01X7076247Y8439923D01*
G01X7062518Y8447322D02*
G01X7073082Y8447322D01*
G01X5987821Y9282077D02*
G01X5979353Y9259923D01*
G01X5987821Y9282077D02*
G01X5996247Y9259923D01*
G01X5982518Y9267322D02*
G01X5993082Y9267322D01*
G01X7067821Y9282077D02*
G01X7059353Y9259923D01*
G01X7067821Y9282077D02*
G01X7076247Y9259923D01*
G01X7062518Y9267322D02*
G01X7073082Y9267322D01*
G01X5987821Y8462077D02*
G01X5979353Y8439923D01*
G01X5987821Y8462077D02*
G01X5996247Y8439923D01*
G01X5982518Y8447322D02*
G01X5993082Y8447322D01*
G01X12369821Y7250090D02*
G01X12361353Y7227935D01*
G01X12369821Y7250090D02*
G01X12378247Y7227935D01*
G01X12364518Y7235335D02*
G01X12375082Y7235335D01*
G01X12369821Y6742090D02*
G01X12361353Y6719935D01*
G01X12369821Y6742090D02*
G01X12378247Y6719935D01*
G01X12364518Y6727335D02*
G01X12375082Y6727335D01*
G01X12001521Y9332890D02*
G01X11993053Y9310735D01*
G01X12001521Y9332890D02*
G01X12009947Y9310735D01*
G01X11996218Y9318135D02*
G01X12006782Y9318135D01*
G01X12001521Y8824890D02*
G01X11993053Y8802735D01*
G01X12001521Y8824890D02*
G01X12009947Y8802735D01*
G01X11996218Y8810135D02*
G01X12006782Y8810135D01*
G01X9819221Y5199977D02*
G01X9810753Y5177823D01*
G01X9819221Y5199977D02*
G01X9827647Y5177823D01*
G01X9813918Y5185222D02*
G01X9824482Y5185222D01*
G01X10894221Y5199977D02*
G01X10885753Y5177823D01*
G01X10894221Y5199977D02*
G01X10902647Y5177823D01*
G01X10888918Y5185222D02*
G01X10899482Y5185222D01*
G01X9819221Y1349977D02*
G01X9810753Y1327823D01*
G01X9819221Y1349977D02*
G01X9827647Y1327823D01*
G01X9813918Y1335222D02*
G01X9824482Y1335222D01*
G01X10619221Y1349977D02*
G01X10610753Y1327823D01*
G01X10619221Y1349977D02*
G01X10627647Y1327823D01*
G01X10613918Y1335222D02*
G01X10624482Y1335222D01*
G01X12537021Y5212677D02*
G01X12528553Y5190523D01*
G01X12537021Y5212677D02*
G01X12545447Y5190523D01*
G01X12531718Y5197922D02*
G01X12542282Y5197922D01*
G01X13612021Y5212677D02*
G01X13603553Y5190523D01*
G01X13612021Y5212677D02*
G01X13620447Y5190523D01*
G01X13606718Y5197922D02*
G01X13617282Y5197922D01*
G01X12537021Y1362677D02*
G01X12528553Y1340523D01*
G01X12537021Y1362677D02*
G01X12545447Y1340523D01*
G01X12531718Y1347922D02*
G01X12542282Y1347922D01*
G01X13337021Y1362677D02*
G01X13328553Y1340523D01*
G01X13337021Y1362677D02*
G01X13345447Y1340523D01*
G01X13331718Y1347922D02*
G01X13342282Y1347922D01*
G04 Image End*
G04 Text End*
G04 Text End*

M02*
