G04 Layer: TopSilkscreenLayer*
G04 EasyEDA Pro v2.1.63.af010a1c.225d47, 2024-07-27 17:45:37*
G04 Gerber Generator version 0.3*
G04 Scale: 100 percent, Rotated: No, Reflected: No*
G04 Dimensions in millimeters*
G04 Leading zeros omitted, absolute positions, 3 integers and 5 decimals*
%FSLAX35Y35*%
%MOMM*%
%ADD10C,0.203*%
%ADD11C,0.1524*%
%ADD12C,0.2032*%
%ADD13C,0.254*%
%ADD14C,0.4*%
%ADD15C,0.5*%
%ADD16C,0.3033*%
%ADD17C,0.3*%
G75*


G04 Text Start*
G54D10*
G01X12947142Y510286D02*
G01X12930124Y504698D01*
G01X12918948Y487934D01*
G01X12913360Y459740D01*
G01Y442976D01*
G01X12918948Y414782D01*
G01X12930124Y398018D01*
G01X12947142Y392430D01*
G01X12958318D01*
G01X12975082Y398018D01*
G01X12986258Y414782D01*
G01X12991846Y442976D01*
G01Y459740D01*
G01X12986258Y487934D01*
G01X12975082Y504698D01*
G01X12958318Y510286D01*
G01X12947142D01*
G01X14034770Y522986D02*
G01X13978636Y522986D01*
G01X13973048Y472440D01*
G01X13978636Y478028D01*
G01X13995654Y483616D01*
G01X14012418D01*
G01X14029182Y478028D01*
G01X14040358Y466852D01*
G01X14045946Y450088D01*
G01Y438658D01*
G01X14040358Y421894D01*
G01X14029182Y410718D01*
G01X14012418Y405130D01*
G01X13995654D01*
G01X13978636Y410718D01*
G01X13973048Y416306D01*
G01X13967460Y427482D01*
G01X10826242Y395986D02*
G01X10809224Y390398D01*
G01X10798048Y373634D01*
G01X10792460Y345440D01*
G01Y328676D01*
G01X10798048Y300482D01*
G01X10809224Y283718D01*
G01X10826242Y278130D01*
G01X10837418D01*
G01X10854182Y283718D01*
G01X10865358Y300482D01*
G01X10870946Y328676D01*
G01Y345440D01*
G01X10865358Y373634D01*
G01X10854182Y390398D01*
G01X10837418Y395986D01*
G01X10826242D01*
G01X9831836Y383286D02*
G01X9775702Y383286D01*
G01X9770114Y332740D01*
G01X9775702Y338328D01*
G01X9792720Y343916D01*
G01X9809484D01*
G01X9826248Y338328D01*
G01X9837424Y327152D01*
G01X9843012Y310388D01*
G01Y298958D01*
G01X9837424Y282194D01*
G01X9826248Y271018D01*
G01X9809484Y265430D01*
G01X9792720D01*
G01X9775702Y271018D01*
G01X9770114Y276606D01*
G01X9764526Y287782D01*
G01X10269436Y852891D02*
G01X10263594Y864321D01*
G01X10252418Y875497D01*
G01X10241242Y881085D01*
G01X10218890D01*
G01X10207460Y875497D01*
G01X10196284Y864321D01*
G01X10190696Y852891D01*
G01X10185108Y836127D01*
G01Y808187D01*
G01X10190696Y791169D01*
G01X10196284Y779993D01*
G01X10207460Y768817D01*
G01X10218890Y763229D01*
G01X10241242D01*
G01X10252418Y768817D01*
G01X10263594Y779993D01*
G01X10269436Y791169D01*
G01Y808187D01*
G01X10241242Y808187D02*
G01X10269436Y808187D01*
G01X10316680Y881085D02*
G01X10316680Y763229D01*
G01X10316680Y881085D02*
G01X10367226Y881085D01*
G01X10383990Y875497D01*
G01X10389578Y869909D01*
G01X10395420Y858733D01*
G01Y841715D01*
G01X10389578Y830539D01*
G01X10383990Y824951D01*
G01X10367226Y819363D01*
G01X10316680D01*
G01X10442664Y881085D02*
G01X10442664Y763229D01*
G01X10489908Y881085D02*
G01X10489908Y763229D01*
G01X10489908Y881085D02*
G01X10540454Y881085D01*
G01X10557218Y875497D01*
G01X10563060Y869909D01*
G01X10568648Y858733D01*
G01Y847303D01*
G01X10563060Y836127D01*
G01X10557218Y830539D01*
G01X10540454Y824951D01*
G01X10489908Y824951D02*
G01X10540454Y824951D01*
G01X10557218Y819363D01*
G01X10563060Y813775D01*
G01X10568648Y802345D01*
G01Y785581D01*
G01X10563060Y774405D01*
G01X10557218Y768817D01*
G01X10540454Y763229D01*
G01X10489908D01*
G01X8481060Y307086D02*
G01X8481060Y222758D01*
G01X8486648Y205994D01*
G01X8497824Y194818D01*
G01X8514842Y189230D01*
G01X8526018D01*
G01X8542782Y194818D01*
G01X8553958Y205994D01*
G01X8559546Y222758D01*
G01Y307086D01*
G01X8606790Y307086D02*
G01X8606790Y189230D01*
G01X8606790Y307086D02*
G01X8685530Y189230D01*
G01X8685530Y307086D02*
G01X8685530Y189230D01*
G01X8732774Y307086D02*
G01X8732774Y189230D01*
G01X8732774Y307086D02*
G01X8783320Y307086D01*
G01X8800084Y301498D01*
G01X8805672Y295910D01*
G01X8811514Y284734D01*
G01Y273304D01*
G01X8805672Y262128D01*
G01X8800084Y256540D01*
G01X8783320Y250952D01*
G01X8732774D01*
G01X8772144Y250952D02*
G01X8811514Y189230D01*
G01X8858758Y307086D02*
G01X8858758Y189230D01*
G01X8858758Y307086D02*
G01X8931656Y307086D01*
G01X8858758Y250952D02*
G01X8903716Y250952D01*
G01X8858758Y189230D02*
G01X8931656Y189230D01*
G01X9063228Y278892D02*
G01X9057640Y290322D01*
G01X9046210Y301498D01*
G01X9035034Y307086D01*
G01X9012682D01*
G01X9001252Y301498D01*
G01X8990076Y290322D01*
G01X8984488Y278892D01*
G01X8978900Y262128D01*
G01Y234188D01*
G01X8984488Y217170D01*
G01X8990076Y205994D01*
G01X9001252Y194818D01*
G01X9012682Y189230D01*
G01X9035034D01*
G01X9046210Y194818D01*
G01X9057640Y205994D01*
G01X9063228Y217170D01*
G01Y234188D01*
G01X9035034Y234188D02*
G01X9063228Y234188D01*
G01X11198860Y773176D02*
G01X11299952Y773176D01*
G01X11347196Y818134D02*
G01X11358372Y823722D01*
G01X11375390Y840486D01*
G01Y722630D01*
G01X11489944Y840486D02*
G01X11433810Y840486D01*
G01X11428222Y789940D01*
G01X11433810Y795528D01*
G01X11450828Y801116D01*
G01X11467592D01*
G01X11484356Y795528D01*
G01X11495532Y784352D01*
G01X11501374Y767588D01*
G01Y756158D01*
G01X11495532Y739394D01*
G01X11484356Y728218D01*
G01X11467592Y722630D01*
G01X11450828D01*
G01X11433810Y728218D01*
G01X11428222Y733806D01*
G01X11422634Y744982D01*
G01X11708130Y840486D02*
G01X11691366Y834898D01*
G01X11679936Y818134D01*
G01X11674348Y789940D01*
G01Y773176D01*
G01X11679936Y744982D01*
G01X11691366Y728218D01*
G01X11708130Y722630D01*
G01X11719306D01*
G01X11736070Y728218D01*
G01X11747500Y744982D01*
G01X11753088Y773176D01*
G01Y789940D01*
G01X11747500Y818134D01*
G01X11736070Y834898D01*
G01X11719306Y840486D01*
G01X11708130D01*
G01X11976608Y823722D02*
G01X11976608Y722630D01*
G01X11926062Y773176D02*
G01X12027154Y773176D01*
G01X12074398Y818134D02*
G01X12085574Y823722D01*
G01X12102592Y840486D01*
G01Y722630D01*
G01X12217146Y840486D02*
G01X12161012Y840486D01*
G01X12155424Y789940D01*
G01X12161012Y795528D01*
G01X12178030Y801116D01*
G01X12194794D01*
G01X12211558Y795528D01*
G01X12222734Y784352D01*
G01X12228576Y767588D01*
G01Y756158D01*
G01X12222734Y739394D01*
G01X12211558Y728218D01*
G01X12194794Y722630D01*
G01X12178030D01*
G01X12161012Y728218D01*
G01X12155424Y733806D01*
G01X12149836Y744982D01*
G01X8358132Y915081D02*
G01X8341114Y909493D01*
G01X8329938Y892729D01*
G01X8324350Y864535D01*
G01Y847771D01*
G01X8329938Y819577D01*
G01X8341114Y802813D01*
G01X8358132Y797225D01*
G01X8369308D01*
G01X8386072Y802813D01*
G01X8397248Y819577D01*
G01X8402836Y847771D01*
G01Y864535D01*
G01X8397248Y892729D01*
G01X8386072Y909493D01*
G01X8369308Y915081D01*
G01X8358132D01*
G01X8701794Y847771D02*
G01X8802632Y847771D01*
G01X9151882Y898317D02*
G01X9151882Y797225D01*
G01X9101590Y847771D02*
G01X9202428Y847771D01*
G01X8432800Y9187180D02*
G01X8406130Y9178290D01*
G01X8388350Y9151620D01*
G01X8379460Y9107170D01*
G01Y9080500D01*
G01X8388350Y9036050D01*
G01X8406130Y9009380D01*
G01X8432800Y9000490D01*
G01X8450580D01*
G01X8477250Y9009380D01*
G01X8495030Y9036050D01*
G01X8503920Y9080500D01*
G01Y9107170D01*
G01X8495030Y9151620D01*
G01X8477250Y9178290D01*
G01X8450580Y9187180D01*
G01X8432800D01*
G01X8379460Y8643620D02*
G01X8397240Y8652510D01*
G01X8423910Y8679180D01*
G01Y8492490D01*
G01X8495792Y8634730D02*
G01X8495792Y8643620D01*
G01X8504682Y8661400D01*
G01X8513572Y8670290D01*
G01X8531352Y8679180D01*
G01X8566912D01*
G01X8584692Y8670290D01*
G01X8593582Y8661400D01*
G01X8602472Y8643620D01*
G01Y8625840D01*
G01X8593582Y8608060D01*
G01X8575802Y8581390D01*
G01X8486902Y8492490D01*
G01X8611362D01*
G01X8727694Y8679180D02*
G01X8701024Y8670290D01*
G01X8683244Y8643620D01*
G01X8674354Y8599170D01*
G01Y8572500D01*
G01X8683244Y8528050D01*
G01X8701024Y8501380D01*
G01X8727694Y8492490D01*
G01X8745474D01*
G01X8772144Y8501380D01*
G01X8789924Y8528050D01*
G01X8798814Y8572500D01*
G01Y8599170D01*
G01X8789924Y8643620D01*
G01X8772144Y8670290D01*
G01X8745474Y8679180D01*
G01X8727694D01*
G01X8365368Y7612380D02*
G01X8338698Y7603490D01*
G01X8320918Y7576820D01*
G01X8312028Y7532370D01*
G01Y7505700D01*
G01X8320918Y7461250D01*
G01X8338698Y7434580D01*
G01X8365368Y7425690D01*
G01X8383148D01*
G01X8409818Y7434580D01*
G01X8427598Y7461250D01*
G01X8436488Y7505700D01*
G01Y7532370D01*
G01X8427598Y7576820D01*
G01X8409818Y7603490D01*
G01X8383148Y7612380D01*
G01X8365368D01*
G01X8312028Y7068820D02*
G01X8329808Y7077710D01*
G01X8356478Y7104380D01*
G01Y6917690D01*
G01X8428360Y7059930D02*
G01X8428360Y7068820D01*
G01X8437250Y7086600D01*
G01X8446140Y7095490D01*
G01X8463920Y7104380D01*
G01X8499480D01*
G01X8517260Y7095490D01*
G01X8526150Y7086600D01*
G01X8535040Y7068820D01*
G01Y7051040D01*
G01X8526150Y7033260D01*
G01X8508370Y7006590D01*
G01X8419470Y6917690D01*
G01X8543930D01*
G01X8660262Y7104380D02*
G01X8633592Y7095490D01*
G01X8615812Y7068820D01*
G01X8606922Y7024370D01*
G01Y6997700D01*
G01X8615812Y6953250D01*
G01X8633592Y6926580D01*
G01X8660262Y6917690D01*
G01X8678042D01*
G01X8704712Y6926580D01*
G01X8722492Y6953250D01*
G01X8731382Y6997700D01*
G01Y7024370D01*
G01X8722492Y7068820D01*
G01X8704712Y7095490D01*
G01X8678042Y7104380D01*
G01X8660262D01*
G01X8379460Y8171180D02*
G01X8379460Y7984490D01*
G01X8379460Y8171180D02*
G01X8503920Y7984490D01*
G01X8503920Y8171180D02*
G01X8503920Y7984490D01*
G01X8700262Y8126730D02*
G01X8691372Y8144510D01*
G01X8673592Y8162290D01*
G01X8655812Y8171180D01*
G01X8620252D01*
G01X8602472Y8162290D01*
G01X8584692Y8144510D01*
G01X8575802Y8126730D01*
G01X8566912Y8100060D01*
G01Y8055610D01*
G01X8575802Y8028940D01*
G01X8584692Y8011160D01*
G01X8602472Y7993380D01*
G01X8620252Y7984490D01*
G01X8655812D01*
G01X8673592Y7993380D01*
G01X8691372Y8011160D01*
G01X8700262Y8028940D01*
G01X8328660Y6647180D02*
G01X8328660Y6460490D01*
G01X8328660Y6647180D02*
G01X8453120Y6460490D01*
G01X8453120Y6647180D02*
G01X8453120Y6460490D01*
G01X8649462Y6602730D02*
G01X8640572Y6620510D01*
G01X8622792Y6638290D01*
G01X8605012Y6647180D01*
G01X8569452D01*
G01X8551672Y6638290D01*
G01X8533892Y6620510D01*
G01X8525002Y6602730D01*
G01X8516112Y6576060D01*
G01Y6531610D01*
G01X8525002Y6504940D01*
G01X8533892Y6487160D01*
G01X8551672Y6469380D01*
G01X8569452Y6460490D01*
G01X8605012D01*
G01X8622792Y6469380D01*
G01X8640572Y6487160D01*
G01X8649462Y6504940D01*
G01X10058400Y8679180D02*
G01X10031730Y8670290D01*
G01X10013950Y8643620D01*
G01X10005060Y8599170D01*
G01Y8572500D01*
G01X10013950Y8528050D01*
G01X10031730Y8501380D01*
G01X10058400Y8492490D01*
G01X10076180D01*
G01X10102850Y8501380D01*
G01X10120630Y8528050D01*
G01X10129520Y8572500D01*
G01Y8599170D01*
G01X10120630Y8643620D01*
G01X10102850Y8670290D01*
G01X10076180Y8679180D01*
G01X10058400D01*
G01X10005060Y8135620D02*
G01X10022840Y8144510D01*
G01X10049510Y8171180D01*
G01Y7984490D01*
G01X10219182Y8171180D02*
G01X10130282Y8171180D01*
G01X10121392Y8091170D01*
G01X10130282Y8100060D01*
G01X10156952Y8108950D01*
G01X10183622D01*
G01X10210292Y8100060D01*
G01X10228072Y8082280D01*
G01X10236962Y8055610D01*
G01Y8037830D01*
G01X10228072Y8011160D01*
G01X10210292Y7993380D01*
G01X10183622Y7984490D01*
G01X10156952D01*
G01X10130282Y7993380D01*
G01X10121392Y8002270D01*
G01X10112502Y8020050D01*
G01X10005060Y9136380D02*
G01X10005060Y8949690D01*
G01X10005060Y9136380D02*
G01X10129520Y8949690D01*
G01X10129520Y9136380D02*
G01X10129520Y8949690D01*
G01X10325862Y9091930D02*
G01X10316972Y9109710D01*
G01X10299192Y9127490D01*
G01X10281412Y9136380D01*
G01X10245852D01*
G01X10228072Y9127490D01*
G01X10210292Y9109710D01*
G01X10201402Y9091930D01*
G01X10192512Y9065260D01*
G01Y9020810D01*
G01X10201402Y8994140D01*
G01X10210292Y8976360D01*
G01X10228072Y8958580D01*
G01X10245852Y8949690D01*
G01X10281412D01*
G01X10299192Y8958580D01*
G01X10316972Y8976360D01*
G01X10325862Y8994140D01*
G01X10055860Y6647180D02*
G01X10055860Y6460490D01*
G01X10055860Y6647180D02*
G01X10180320Y6460490D01*
G01X10180320Y6647180D02*
G01X10180320Y6460490D01*
G01X10376662Y6602730D02*
G01X10367772Y6620510D01*
G01X10349992Y6638290D01*
G01X10332212Y6647180D01*
G01X10296652D01*
G01X10278872Y6638290D01*
G01X10261092Y6620510D01*
G01X10252202Y6602730D01*
G01X10243312Y6576060D01*
G01Y6531610D01*
G01X10252202Y6504940D01*
G01X10261092Y6487160D01*
G01X10278872Y6469380D01*
G01X10296652Y6460490D01*
G01X10332212D01*
G01X10349992Y6469380D01*
G01X10367772Y6487160D01*
G01X10376662Y6504940D01*
G01X10084694Y7612380D02*
G01X10058024Y7603490D01*
G01X10040244Y7576820D01*
G01X10031354Y7532370D01*
G01Y7505700D01*
G01X10040244Y7461250D01*
G01X10058024Y7434580D01*
G01X10084694Y7425690D01*
G01X10102474D01*
G01X10129144Y7434580D01*
G01X10146924Y7461250D01*
G01X10155814Y7505700D01*
G01Y7532370D01*
G01X10146924Y7576820D01*
G01X10129144Y7603490D01*
G01X10102474Y7612380D01*
G01X10084694D01*
G01X10031354Y7068820D02*
G01X10049134Y7077710D01*
G01X10075804Y7104380D01*
G01Y6917690D01*
G01X10245476Y7104380D02*
G01X10156576Y7104380D01*
G01X10147686Y7024370D01*
G01X10156576Y7033260D01*
G01X10183246Y7042150D01*
G01X10209916D01*
G01X10236586Y7033260D01*
G01X10254366Y7015480D01*
G01X10263256Y6988810D01*
G01Y6971030D01*
G01X10254366Y6944360D01*
G01X10236586Y6926580D01*
G01X10209916Y6917690D01*
G01X10183246D01*
G01X10156576Y6926580D01*
G01X10147686Y6935470D01*
G01X10138796Y6953250D01*
G54D11*
G01X7331710Y7930134D02*
G01X7331710Y7865110D01*
G01X7310120Y7930134D02*
G01X7353554Y7930134D01*
G01X7383780Y7930134D02*
G01X7426960Y7865110D01*
G01X7426960Y7930134D02*
G01X7383780Y7865110D01*
G01X7457186Y7917688D02*
G01X7463282Y7920990D01*
G01X7472426Y7930134D01*
G01Y7865110D01*
G01X14221236Y7355093D02*
G01X14174754Y7355093D01*
G01X14165610Y7352045D01*
G01X14159260Y7345695D01*
G01X14156212Y7336551D01*
G01Y7330201D01*
G01X14159260Y7321057D01*
G01X14165610Y7314961D01*
G01X14174754Y7311659D01*
G01X14221236D01*
G01X14208790Y7281433D02*
G01X14212092Y7275337D01*
G01X14221236Y7266193D01*
G01X14156212D01*
G01X14191839Y9278076D02*
G01X14145357Y9278076D01*
G01X14136213Y9275028D01*
G01X14129863Y9268678D01*
G01X14126815Y9259534D01*
G01Y9253184D01*
G01X14129863Y9244040D01*
G01X14136213Y9237944D01*
G01X14145357Y9234642D01*
G01X14191839D01*
G01X14176345Y9201368D02*
G01X14179393Y9201368D01*
G01X14185743Y9198320D01*
G01X14188791Y9195272D01*
G01X14191839Y9189176D01*
G01Y9176730D01*
G01X14188791Y9170380D01*
G01X14185743Y9167332D01*
G01X14179393Y9164284D01*
G01X14173297D01*
G01X14167201Y9167332D01*
G01X14157803Y9173682D01*
G01X14126815Y9204416D01*
G01Y9161236D01*
G54D10*
G01X6170930Y8568690D02*
G01X6170930Y8728710D01*
G01X6250940Y8648700D02*
G01X6090920Y8648700D01*
G01X6936740Y9105900D02*
G01X6776720Y9105900D01*
G54D11*
G01X6624320Y9390634D02*
G01X6624320Y9325610D01*
G01X6624320Y9390634D02*
G01X6645910Y9390634D01*
G01X6655308Y9387586D01*
G01X6661404Y9381490D01*
G01X6664452Y9375140D01*
G01X6667754Y9365996D01*
G01Y9350502D01*
G01X6664452Y9341104D01*
G01X6661404Y9335008D01*
G01X6655308Y9328658D01*
G01X6645910Y9325610D01*
G01X6624320D01*
G01X6697980Y9378188D02*
G01X6704076Y9381490D01*
G01X6713220Y9390634D01*
G01Y9325610D01*
G01X6658102Y3114040D02*
G01X6655054Y3120390D01*
G01X6648704Y3126486D01*
G01X6642608Y3129534D01*
G01X6630162D01*
G01X6624066Y3126486D01*
G01X6617716Y3120390D01*
G01X6614668Y3114040D01*
G01X6611620Y3104896D01*
G01Y3089402D01*
G01X6614668Y3080004D01*
G01X6617716Y3073908D01*
G01X6624066Y3067558D01*
G01X6630162Y3064510D01*
G01X6642608D01*
G01X6648704Y3067558D01*
G01X6655054Y3073908D01*
G01X6658102Y3080004D01*
G01X6688328Y3117088D02*
G01X6694424Y3120390D01*
G01X6703568Y3129534D01*
G01Y3064510D01*
G01X6772509Y5595874D02*
G01X6769461Y5602224D01*
G01X6763111Y5608320D01*
G01X6757015Y5611368D01*
G01X6744569D01*
G01X6738473Y5608320D01*
G01X6732123Y5602224D01*
G01X6729075Y5595874D01*
G01X6726027Y5586730D01*
G01Y5571236D01*
G01X6729075Y5561838D01*
G01X6732123Y5555742D01*
G01X6738473Y5549392D01*
G01X6744569Y5546344D01*
G01X6757015D01*
G01X6763111Y5549392D01*
G01X6769461Y5555742D01*
G01X6772509Y5561838D01*
G01X6805783Y5595874D02*
G01X6805783Y5598922D01*
G01X6808831Y5605272D01*
G01X6811879Y5608320D01*
G01X6817975Y5611368D01*
G01X6830421D01*
G01X6836771Y5608320D01*
G01X6839819Y5605272D01*
G01X6842867Y5598922D01*
G01Y5592826D01*
G01X6839819Y5586730D01*
G01X6833469Y5577332D01*
G01X6802735Y5546344D01*
G01X6845915D01*
G01X1483700Y1151133D02*
G01X1483700Y1086109D01*
G01X1483700Y1151133D02*
G01X1511640Y1151133D01*
G01X1520784Y1148085D01*
G01X1523832Y1145037D01*
G01X1527134Y1138687D01*
G01Y1129543D01*
G01X1523832Y1123447D01*
G01X1520784Y1120145D01*
G01X1511640Y1117097D01*
G01X1483700D01*
G01X1557360Y1138687D02*
G01X1563456Y1141989D01*
G01X1572600Y1151133D01*
G01Y1086109D01*
G01X3606249Y1163279D02*
G01X3603201Y1169629D01*
G01X3596851Y1175725D01*
G01X3590755Y1178773D01*
G01X3578309D01*
G01X3572213Y1175725D01*
G01X3565863Y1169629D01*
G01X3562815Y1163279D01*
G01X3559767Y1154135D01*
G01Y1138641D01*
G01X3562815Y1129243D01*
G01X3565863Y1123147D01*
G01X3572213Y1116797D01*
G01X3578309Y1113749D01*
G01X3590755D01*
G01X3596851Y1116797D01*
G01X3603201Y1123147D01*
G01X3606249Y1129243D01*
G01X3636475Y1178773D02*
G01X3636475Y1113749D01*
G01X3636475Y1178773D02*
G01X3679655Y1113749D01*
G01X3679655Y1178773D02*
G01X3679655Y1113749D01*
G01X3709881Y1166327D02*
G01X3715977Y1169629D01*
G01X3725121Y1178773D01*
G01Y1113749D01*
G01X4825449Y1150579D02*
G01X4822401Y1156929D01*
G01X4816051Y1163025D01*
G01X4809955Y1166073D01*
G01X4797509D01*
G01X4791413Y1163025D01*
G01X4785063Y1156929D01*
G01X4782015Y1150579D01*
G01X4778967Y1141435D01*
G01Y1125941D01*
G01X4782015Y1116543D01*
G01X4785063Y1110447D01*
G01X4791413Y1104097D01*
G01X4797509Y1101049D01*
G01X4809955D01*
G01X4816051Y1104097D01*
G01X4822401Y1110447D01*
G01X4825449Y1116543D01*
G01X4855675Y1166073D02*
G01X4855675Y1101049D01*
G01X4855675Y1166073D02*
G01X4898855Y1101049D01*
G01X4898855Y1166073D02*
G01X4898855Y1101049D01*
G01X4932129Y1150579D02*
G01X4932129Y1153627D01*
G01X4935177Y1159977D01*
G01X4938225Y1163025D01*
G01X4944321Y1166073D01*
G01X4956767D01*
G01X4963117Y1163025D01*
G01X4966165Y1159977D01*
G01X4969213Y1153627D01*
G01Y1147531D01*
G01X4966165Y1141435D01*
G01X4959815Y1132037D01*
G01X4929081Y1101049D01*
G01X4972261D01*
G01X482854Y9673590D02*
G01X476504Y9679686D01*
G01X467360Y9682734D01*
G01X454914D01*
G01X445516Y9679686D01*
G01X439420Y9673590D01*
G01Y9667240D01*
G01X442468Y9661144D01*
G01X445516Y9658096D01*
G01X451866Y9655048D01*
G01X470408Y9648698D01*
G01X476504Y9645650D01*
G01X479552Y9642602D01*
G01X482854Y9636252D01*
G01Y9627108D01*
G01X476504Y9620758D01*
G01X467360Y9617710D01*
G01X454914D01*
G01X445516Y9620758D01*
G01X439420Y9627108D01*
G01X559308Y9667240D02*
G01X556260Y9673590D01*
G01X550164Y9679686D01*
G01X543814Y9682734D01*
G01X531622D01*
G01X525272Y9679686D01*
G01X519176Y9673590D01*
G01X516128Y9667240D01*
G01X513080Y9658096D01*
G01Y9642602D01*
G01X516128Y9633204D01*
G01X519176Y9627108D01*
G01X525272Y9620758D01*
G01X531622Y9617710D01*
G01X543814D01*
G01X550164Y9620758D01*
G01X556260Y9627108D01*
G01X559308Y9633204D01*
G01X589534Y9682734D02*
G01X589534Y9617710D01*
G01X589534Y9682734D02*
G01X617220Y9682734D01*
G01X626618Y9679686D01*
G01X629666Y9676638D01*
G01X632714Y9670288D01*
G01Y9664192D01*
G01X629666Y9658096D01*
G01X626618Y9655048D01*
G01X617220Y9651746D01*
G01X589534D01*
G01X611124Y9651746D02*
G01X632714Y9617710D01*
G01X662940Y9682734D02*
G01X662940Y9617710D01*
G01X662940Y9682734D02*
G01X703072Y9682734D01*
G01X662940Y9651746D02*
G01X687578Y9651746D01*
G01X662940Y9617710D02*
G01X703072Y9617710D01*
G01X733298Y9682734D02*
G01X748538Y9617710D01*
G01X764032Y9682734D02*
G01X748538Y9617710D01*
G01X764032Y9682734D02*
G01X779526Y9617710D01*
G01X795020Y9682734D02*
G01X779526Y9617710D01*
G01X825246Y9670288D02*
G01X831342Y9673590D01*
G01X840486Y9682734D01*
G01Y9617710D01*
G01X254254Y935990D02*
G01X247904Y942086D01*
G01X238760Y945134D01*
G01X226314D01*
G01X216916Y942086D01*
G01X210820Y935990D01*
G01Y929640D01*
G01X213868Y923544D01*
G01X216916Y920496D01*
G01X223266Y917448D01*
G01X241808Y911098D01*
G01X247904Y908050D01*
G01X250952Y905002D01*
G01X254254Y898652D01*
G01Y889508D01*
G01X247904Y883158D01*
G01X238760Y880110D01*
G01X226314D01*
G01X216916Y883158D01*
G01X210820Y889508D01*
G01X330708Y929640D02*
G01X327660Y935990D01*
G01X321564Y942086D01*
G01X315214Y945134D01*
G01X303022D01*
G01X296672Y942086D01*
G01X290576Y935990D01*
G01X287528Y929640D01*
G01X284480Y920496D01*
G01Y905002D01*
G01X287528Y895604D01*
G01X290576Y889508D01*
G01X296672Y883158D01*
G01X303022Y880110D01*
G01X315214D01*
G01X321564Y883158D01*
G01X327660Y889508D01*
G01X330708Y895604D01*
G01X360934Y945134D02*
G01X360934Y880110D01*
G01X360934Y945134D02*
G01X388620Y945134D01*
G01X398018Y942086D01*
G01X401066Y939038D01*
G01X404114Y932688D01*
G01Y926592D01*
G01X401066Y920496D01*
G01X398018Y917448D01*
G01X388620Y914146D01*
G01X360934D01*
G01X382524Y914146D02*
G01X404114Y880110D01*
G01X434340Y945134D02*
G01X434340Y880110D01*
G01X434340Y945134D02*
G01X474472Y945134D01*
G01X434340Y914146D02*
G01X458978Y914146D01*
G01X434340Y880110D02*
G01X474472Y880110D01*
G01X504698Y945134D02*
G01X519938Y880110D01*
G01X535432Y945134D02*
G01X519938Y880110D01*
G01X535432Y945134D02*
G01X550926Y880110D01*
G01X566420Y945134D02*
G01X550926Y880110D01*
G01X599694Y929640D02*
G01X599694Y932688D01*
G01X602742Y939038D01*
G01X605790Y942086D01*
G01X611886Y945134D01*
G01X624332D01*
G01X630682Y942086D01*
G01X633730Y939038D01*
G01X636778Y932688D01*
G01Y926592D01*
G01X633730Y920496D01*
G01X627380Y911098D01*
G01X596646Y880110D01*
G01X639826D01*
G01X14363954Y847090D02*
G01X14357604Y853186D01*
G01X14348460Y856234D01*
G01X14336014D01*
G01X14326616Y853186D01*
G01X14320520Y847090D01*
G01Y840740D01*
G01X14323568Y834644D01*
G01X14326616Y831596D01*
G01X14332966Y828548D01*
G01X14351508Y822198D01*
G01X14357604Y819150D01*
G01X14360652Y816102D01*
G01X14363954Y809752D01*
G01Y800608D01*
G01X14357604Y794258D01*
G01X14348460Y791210D01*
G01X14336014D01*
G01X14326616Y794258D01*
G01X14320520Y800608D01*
G01X14440408Y840740D02*
G01X14437360Y847090D01*
G01X14431264Y853186D01*
G01X14424914Y856234D01*
G01X14412722D01*
G01X14406372Y853186D01*
G01X14400276Y847090D01*
G01X14397228Y840740D01*
G01X14394180Y831596D01*
G01Y816102D01*
G01X14397228Y806704D01*
G01X14400276Y800608D01*
G01X14406372Y794258D01*
G01X14412722Y791210D01*
G01X14424914D01*
G01X14431264Y794258D01*
G01X14437360Y800608D01*
G01X14440408Y806704D01*
G01X14470634Y856234D02*
G01X14470634Y791210D01*
G01X14470634Y856234D02*
G01X14498320Y856234D01*
G01X14507718Y853186D01*
G01X14510766Y850138D01*
G01X14513814Y843788D01*
G01Y837692D01*
G01X14510766Y831596D01*
G01X14507718Y828548D01*
G01X14498320Y825246D01*
G01X14470634D01*
G01X14492224Y825246D02*
G01X14513814Y791210D01*
G01X14544040Y856234D02*
G01X14544040Y791210D01*
G01X14544040Y856234D02*
G01X14584172Y856234D01*
G01X14544040Y825246D02*
G01X14568678Y825246D01*
G01X14544040Y791210D02*
G01X14584172Y791210D01*
G01X14614398Y856234D02*
G01X14629638Y791210D01*
G01X14645132Y856234D02*
G01X14629638Y791210D01*
G01X14645132Y856234D02*
G01X14660626Y791210D01*
G01X14676120Y856234D02*
G01X14660626Y791210D01*
G01X14712442Y856234D02*
G01X14746478Y856234D01*
G01X14727936Y831596D01*
G01X14737080D01*
G01X14743430Y828548D01*
G01X14746478Y825246D01*
G01X14749526Y816102D01*
G01Y809752D01*
G01X14746478Y800608D01*
G01X14740382Y794258D01*
G01X14730984Y791210D01*
G01X14721586D01*
G01X14712442Y794258D01*
G01X14709394Y797560D01*
G01X14706346Y803656D01*
G01X14338554Y9686290D02*
G01X14332204Y9692386D01*
G01X14323060Y9695434D01*
G01X14310614D01*
G01X14301216Y9692386D01*
G01X14295120Y9686290D01*
G01Y9679940D01*
G01X14298168Y9673844D01*
G01X14301216Y9670796D01*
G01X14307566Y9667748D01*
G01X14326108Y9661398D01*
G01X14332204Y9658350D01*
G01X14335252Y9655302D01*
G01X14338554Y9648952D01*
G01Y9639808D01*
G01X14332204Y9633458D01*
G01X14323060Y9630410D01*
G01X14310614D01*
G01X14301216Y9633458D01*
G01X14295120Y9639808D01*
G01X14415008Y9679940D02*
G01X14411960Y9686290D01*
G01X14405864Y9692386D01*
G01X14399514Y9695434D01*
G01X14387322D01*
G01X14380972Y9692386D01*
G01X14374876Y9686290D01*
G01X14371828Y9679940D01*
G01X14368780Y9670796D01*
G01Y9655302D01*
G01X14371828Y9645904D01*
G01X14374876Y9639808D01*
G01X14380972Y9633458D01*
G01X14387322Y9630410D01*
G01X14399514D01*
G01X14405864Y9633458D01*
G01X14411960Y9639808D01*
G01X14415008Y9645904D01*
G01X14445234Y9695434D02*
G01X14445234Y9630410D01*
G01X14445234Y9695434D02*
G01X14472920Y9695434D01*
G01X14482318Y9692386D01*
G01X14485366Y9689338D01*
G01X14488414Y9682988D01*
G01Y9676892D01*
G01X14485366Y9670796D01*
G01X14482318Y9667748D01*
G01X14472920Y9664446D01*
G01X14445234D01*
G01X14466824Y9664446D02*
G01X14488414Y9630410D01*
G01X14518640Y9695434D02*
G01X14518640Y9630410D01*
G01X14518640Y9695434D02*
G01X14558772Y9695434D01*
G01X14518640Y9664446D02*
G01X14543278Y9664446D01*
G01X14518640Y9630410D02*
G01X14558772Y9630410D01*
G01X14588998Y9695434D02*
G01X14604238Y9630410D01*
G01X14619732Y9695434D02*
G01X14604238Y9630410D01*
G01X14619732Y9695434D02*
G01X14635226Y9630410D01*
G01X14650720Y9695434D02*
G01X14635226Y9630410D01*
G01X14711680Y9695434D02*
G01X14680946Y9652254D01*
G01X14727174D01*
G01X14711680Y9695434D02*
G01X14711680Y9630410D01*
G01X9113520Y1237234D02*
G01X9113520Y1172210D01*
G01X9113520Y1237234D02*
G01X9141460Y1237234D01*
G01X9150604Y1234186D01*
G01X9153652Y1231138D01*
G01X9156954Y1224788D01*
G01Y1215644D01*
G01X9153652Y1209548D01*
G01X9150604Y1206246D01*
G01X9141460Y1203198D01*
G01X9113520D01*
G01X9190228Y1221740D02*
G01X9190228Y1224788D01*
G01X9193276Y1231138D01*
G01X9196324Y1234186D01*
G01X9202420Y1237234D01*
G01X9214866D01*
G01X9221216Y1234186D01*
G01X9224264Y1231138D01*
G01X9227312Y1224788D01*
G01Y1218692D01*
G01X9224264Y1212596D01*
G01X9217914Y1203198D01*
G01X9187180Y1172210D01*
G01X9230360D01*
G01X13123951Y7593736D02*
G01X13130301Y7596784D01*
G01X13136397Y7603134D01*
G01X13139445Y7609230D01*
G01Y7621676D01*
G01X13136397Y7627772D01*
G01X13130301Y7634122D01*
G01X13123951Y7637170D01*
G01X13114807Y7640218D01*
G01X13099313D01*
G01X13089915Y7637170D01*
G01X13083819Y7634122D01*
G01X13077469Y7627772D01*
G01X13074421Y7621676D01*
G01Y7609230D01*
G01X13077469Y7603134D01*
G01X13083819Y7596784D01*
G01X13089915Y7593736D01*
G01X13139445Y7557414D02*
G01X13139445Y7523378D01*
G01X13114807Y7541920D01*
G01Y7532776D01*
G01X13111759Y7526426D01*
G01X13108457Y7523378D01*
G01X13099313Y7520330D01*
G01X13092963D01*
G01X13083819Y7523378D01*
G01X13077469Y7529474D01*
G01X13074421Y7538872D01*
G01Y7548270D01*
G01X13077469Y7557414D01*
G01X13080771Y7560462D01*
G01X13086867Y7563510D01*
G01X12755651Y9676536D02*
G01X12762001Y9679584D01*
G01X12768097Y9685934D01*
G01X12771145Y9692030D01*
G01Y9704476D01*
G01X12768097Y9710572D01*
G01X12762001Y9716922D01*
G01X12755651Y9719970D01*
G01X12746507Y9723018D01*
G01X12731013D01*
G01X12721615Y9719970D01*
G01X12715519Y9716922D01*
G01X12709169Y9710572D01*
G01X12706121Y9704476D01*
G01Y9692030D01*
G01X12709169Y9685934D01*
G01X12715519Y9679584D01*
G01X12721615Y9676536D01*
G01X12771145Y9615576D02*
G01X12727965Y9646310D01*
G01Y9600082D01*
G01X12771145Y9615576D02*
G01X12706121Y9615576D01*
G54D12*
G01X11513058Y5998464D02*
G01X11440160Y5998464D01*
G01X11476482Y6035040D02*
G01X11476482Y5962142D01*
G01X11454638Y6492240D02*
G01X11462766Y6492240D01*
G01X11474958Y6488176D01*
G01X11479022Y6480048D01*
G01Y6471920D01*
G01X11474958Y6463792D01*
G01X11462766Y6447536D01*
G01X11458702Y6439662D01*
G01Y6431534D01*
G01X11462766Y6423406D01*
G01X11470894Y6419342D01*
G01X11462766Y6492240D02*
G01X11470894Y6488176D01*
G01X11474958Y6480048D01*
G01Y6471920D01*
G01X11470894Y6463792D01*
G01X11458702Y6447536D01*
G01X11454638Y6439662D01*
G01Y6431534D01*
G01X11458702Y6423406D01*
G01X11470894Y6419342D01*
G01X11479022D01*
G01X11492738Y7038340D02*
G01X11500866Y7038340D01*
G01X11513058Y7034276D01*
G01X11517122Y7026148D01*
G01Y7018020D01*
G01X11513058Y7009892D01*
G01X11500866Y6993636D01*
G01X11496802Y6985762D01*
G01Y6977634D01*
G01X11500866Y6969506D01*
G01X11508994Y6965442D01*
G01X11500866Y7038340D02*
G01X11508994Y7034276D01*
G01X11513058Y7026148D01*
G01Y7018020D01*
G01X11508994Y7009892D01*
G01X11496802Y6993636D01*
G01X11492738Y6985762D01*
G01Y6977634D01*
G01X11496802Y6969506D01*
G01X11508994Y6965442D01*
G01X11517122D01*
G01X11479530Y7559040D02*
G01X11479530Y7486142D01*
G54D11*
G01X11713431Y8028882D02*
G01X11648407Y8028882D01*
G01X11713431Y8028882D02*
G01X11713431Y8007292D01*
G01X11710383Y7997894D01*
G01X11704287Y7991798D01*
G01X11697937Y7988750D01*
G01X11688793Y7985448D01*
G01X11673299D01*
G01X11663901Y7988750D01*
G01X11657805Y7991798D01*
G01X11651455Y7997894D01*
G01X11648407Y8007292D01*
G01Y8028882D01*
G01X11697937Y7952174D02*
G01X11700985Y7952174D01*
G01X11707335Y7949126D01*
G01X11710383Y7946078D01*
G01X11713431Y7939982D01*
G01Y7927536D01*
G01X11710383Y7921186D01*
G01X11707335Y7918138D01*
G01X11700985Y7915090D01*
G01X11694889D01*
G01X11688793Y7918138D01*
G01X11679395Y7924488D01*
G01X11648407Y7955222D01*
G01Y7912042D01*
G01X10955020Y818134D02*
G01X10955020Y753110D01*
G01X10955020Y818134D02*
G01X10982960Y818134D01*
G01X10992104Y815086D01*
G01X10995152Y812038D01*
G01X10998454Y805688D01*
G01Y796544D01*
G01X10995152Y790448D01*
G01X10992104Y787146D01*
G01X10982960Y784098D01*
G01X10955020D01*
G01X11059414Y818134D02*
G01X11028680Y774954D01*
G01X11074908D01*
G01X11059414Y818134D02*
G01X11059414Y753110D01*
G01X12625248Y5950890D02*
G01X12618898Y5947842D01*
G01X12612802Y5941492D01*
G01X12609754Y5935396D01*
G01Y5922950D01*
G01X12612802Y5916854D01*
G01X12618898Y5910504D01*
G01X12625248Y5907456D01*
G01X12634392Y5904408D01*
G01X12649886D01*
G01X12659284Y5907456D01*
G01X12665380Y5910504D01*
G01X12671730Y5916854D01*
G01X12674778Y5922950D01*
G01Y5935396D01*
G01X12671730Y5941492D01*
G01X12665380Y5947842D01*
G01X12659284Y5950890D01*
G01X12609754Y6018200D02*
G01X12609754Y5987212D01*
G01X12637440Y5984164D01*
G01X12634392Y5987212D01*
G01X12631344Y5996356D01*
G01Y6005754D01*
G01X12634392Y6015152D01*
G01X12640742Y6021248D01*
G01X12649886Y6024296D01*
G01X12656236D01*
G01X12665380Y6021248D01*
G01X12671730Y6015152D01*
G01X12674778Y6005754D01*
G01Y5996356D01*
G01X12671730Y5987212D01*
G01X12668428Y5984164D01*
G01X12662332Y5981116D01*
G01X13041452Y8527110D02*
G01X13047802Y8530158D01*
G01X13053898Y8536508D01*
G01X13056946Y8542604D01*
G01Y8555050D01*
G01X13053898Y8561146D01*
G01X13047802Y8567496D01*
G01X13041452Y8570544D01*
G01X13032308Y8573592D01*
G01X13016814D01*
G01X13007416Y8570544D01*
G01X13001320Y8567496D01*
G01X12994970Y8561146D01*
G01X12991922Y8555050D01*
G01Y8542604D01*
G01X12994970Y8536508D01*
G01X13001320Y8530158D01*
G01X13007416Y8527110D01*
G01X13047802Y8459800D02*
G01X13053898Y8462848D01*
G01X13056946Y8472246D01*
G01Y8478342D01*
G01X13053898Y8487740D01*
G01X13044500Y8493836D01*
G01X13029260Y8496884D01*
G01X13013766D01*
G01X13001320Y8493836D01*
G01X12994970Y8487740D01*
G01X12991922Y8478342D01*
G01Y8475294D01*
G01X12994970Y8466150D01*
G01X13001320Y8459800D01*
G01X13010464Y8456752D01*
G01X13013766D01*
G01X13022910Y8459800D01*
G01X13029260Y8466150D01*
G01X13032308Y8475294D01*
G01Y8478342D01*
G01X13029260Y8487740D01*
G01X13022910Y8493836D01*
G01X13013766Y8496884D01*
G01X11741912Y5733034D02*
G01X11717020Y5668010D01*
G01X11741912Y5733034D02*
G01X11766550Y5668010D01*
G01X11726418Y5689854D02*
G01X11757152Y5689854D01*
G01X11843004Y5717540D02*
G01X11839956Y5723890D01*
G01X11833860Y5729986D01*
G01X11827510Y5733034D01*
G01X11815318D01*
G01X11808968Y5729986D01*
G01X11802872Y5723890D01*
G01X11799824Y5717540D01*
G01X11796776Y5708396D01*
G01Y5692902D01*
G01X11799824Y5683504D01*
G01X11802872Y5677408D01*
G01X11808968Y5671058D01*
G01X11815318Y5668010D01*
G01X11827510D01*
G01X11833860Y5671058D01*
G01X11839956Y5677408D01*
G01X11843004Y5683504D01*
G01X11873230Y5733034D02*
G01X11873230Y5668010D01*
G01X11873230Y5733034D02*
G01X11894820Y5733034D01*
G01X11903964Y5729986D01*
G01X11910314Y5723890D01*
G01X11913362Y5717540D01*
G01X11916410Y5708396D01*
G01Y5692902D01*
G01X11913362Y5683504D01*
G01X11910314Y5677408D01*
G01X11903964Y5671058D01*
G01X11894820Y5668010D01*
G01X11873230D01*
G01X11992864Y5717540D02*
G01X11989816Y5723890D01*
G01X11983720Y5729986D01*
G01X11977370Y5733034D01*
G01X11965178D01*
G01X11958828Y5729986D01*
G01X11952732Y5723890D01*
G01X11949684Y5717540D01*
G01X11946636Y5708396D01*
G01Y5692902D01*
G01X11949684Y5683504D01*
G01X11952732Y5677408D01*
G01X11958828Y5671058D01*
G01X11965178Y5668010D01*
G01X11977370D01*
G01X11983720Y5671058D01*
G01X11989816Y5677408D01*
G01X11992864Y5683504D01*
G01X12023090Y5720588D02*
G01X12029186Y5723890D01*
G01X12038330Y5733034D01*
G01Y5668010D01*
G01X13964412Y5758434D02*
G01X13939520Y5693410D01*
G01X13964412Y5758434D02*
G01X13989050Y5693410D01*
G01X13948918Y5715254D02*
G01X13979652Y5715254D01*
G01X14065504Y5742940D02*
G01X14062456Y5749290D01*
G01X14056360Y5755386D01*
G01X14050010Y5758434D01*
G01X14037818D01*
G01X14031468Y5755386D01*
G01X14025372Y5749290D01*
G01X14022324Y5742940D01*
G01X14019276Y5733796D01*
G01Y5718302D01*
G01X14022324Y5708904D01*
G01X14025372Y5702808D01*
G01X14031468Y5696458D01*
G01X14037818Y5693410D01*
G01X14050010D01*
G01X14056360Y5696458D01*
G01X14062456Y5702808D01*
G01X14065504Y5708904D01*
G01X14095730Y5758434D02*
G01X14095730Y5693410D01*
G01X14095730Y5758434D02*
G01X14117320Y5758434D01*
G01X14126464Y5755386D01*
G01X14132814Y5749290D01*
G01X14135862Y5742940D01*
G01X14138910Y5733796D01*
G01Y5718302D01*
G01X14135862Y5708904D01*
G01X14132814Y5702808D01*
G01X14126464Y5696458D01*
G01X14117320Y5693410D01*
G01X14095730D01*
G01X14215364Y5742940D02*
G01X14212316Y5749290D01*
G01X14206220Y5755386D01*
G01X14199870Y5758434D01*
G01X14187678D01*
G01X14181328Y5755386D01*
G01X14175232Y5749290D01*
G01X14172184Y5742940D01*
G01X14169136Y5733796D01*
G01Y5718302D01*
G01X14172184Y5708904D01*
G01X14175232Y5702808D01*
G01X14181328Y5696458D01*
G01X14187678Y5693410D01*
G01X14199870D01*
G01X14206220Y5696458D01*
G01X14212316Y5702808D01*
G01X14215364Y5708904D01*
G01X14248638Y5742940D02*
G01X14248638Y5745988D01*
G01X14251686Y5752338D01*
G01X14254734Y5755386D01*
G01X14260830Y5758434D01*
G01X14273276D01*
G01X14279626Y5755386D01*
G01X14282674Y5752338D01*
G01X14285722Y5745988D01*
G01Y5739892D01*
G01X14282674Y5733796D01*
G01X14276324Y5724398D01*
G01X14245590Y5693410D01*
G01X14288770D01*
G01X9947867Y835873D02*
G01X9947867Y770849D01*
G01X9947867Y835873D02*
G01X9975807Y835873D01*
G01X9984951Y832825D01*
G01X9987999Y829777D01*
G01X9991301Y823427D01*
G01Y814283D01*
G01X9987999Y808187D01*
G01X9984951Y804885D01*
G01X9975807Y801837D01*
G01X9947867D01*
G01X10027623Y835873D02*
G01X10061659Y835873D01*
G01X10043117Y811235D01*
G01X10052261D01*
G01X10058611Y808187D01*
G01X10061659Y804885D01*
G01X10064707Y795741D01*
G01Y789391D01*
G01X10061659Y780247D01*
G01X10055563Y773897D01*
G01X10046165Y770849D01*
G01X10036767D01*
G01X10027623Y773897D01*
G01X10024575Y777199D01*
G01X10021527Y783295D01*
G01X13393420Y843534D02*
G01X13393420Y778510D01*
G01X13393420Y843534D02*
G01X13421360Y843534D01*
G01X13430504Y840486D01*
G01X13433552Y837438D01*
G01X13436854Y831088D01*
G01Y821944D01*
G01X13433552Y815848D01*
G01X13430504Y812546D01*
G01X13421360Y809498D01*
G01X13393420D01*
G01X13504164Y843534D02*
G01X13473176Y843534D01*
G01X13470128Y815848D01*
G01X13473176Y818896D01*
G01X13482320Y821944D01*
G01X13491718D01*
G01X13501116Y818896D01*
G01X13507212Y812546D01*
G01X13510260Y803402D01*
G01Y797052D01*
G01X13507212Y787908D01*
G01X13501116Y781558D01*
G01X13491718Y778510D01*
G01X13482320D01*
G01X13473176Y781558D01*
G01X13470128Y784860D01*
G01X13467080Y790956D01*
G01X384810Y8209534D02*
G01X384810Y8144510D01*
G01X363220Y8209534D02*
G01X406654Y8209534D01*
G01X436880Y8209534D02*
G01X480060Y8144510D01*
G01X480060Y8209534D02*
G01X436880Y8144510D01*
G01X513334Y8194040D02*
G01X513334Y8197088D01*
G01X516382Y8203438D01*
G01X519430Y8206486D01*
G01X525526Y8209534D01*
G01X537972D01*
G01X544322Y8206486D01*
G01X547370Y8203438D01*
G01X550418Y8197088D01*
G01Y8190992D01*
G01X547370Y8184896D01*
G01X541020Y8175498D01*
G01X510286Y8144510D01*
G01X553466D01*
G04 Text End*

G04 PolygonModel Start*
G54D13*
G01X14101602Y7350013D02*
G01X14101602Y6289812D01*
G01X14101602Y6289812D02*
G01X13621794Y6289812D01*
G01X13621794Y6289812D02*
G01X13621794Y7350013D01*
G01X13621794Y7350013D02*
G01X14101094Y7350013D01*
G01X14101094Y7350013D02*
G01X14101602Y7350013D01*
G01X14041686Y6289916D02*
G01X14041686Y7349909D01*
G54D14*
G01X13559196Y7096910D02*
G03X13559196Y7096656I-19990J-127D01*
G54D13*
G01X13944204Y9260296D02*
G01X13944204Y8240298D01*
G01X14072205Y8227598D02*
G01X13622205Y8227598D01*
G01X13622205Y8227598D02*
G01X13622205Y9272996D01*
G01X13622205Y9272996D02*
G01X14072205Y9272996D01*
G01X14072205Y9272996D02*
G01X14072205Y8228099D01*
G01X8067425Y1875921D02*
G01X8067425Y1703201D01*
G01X7978525Y1792101D02*
G01X8146165Y1792101D01*
G01X7198745Y559947D02*
G03X7176901Y559947I-10922J1250287D01*
G36*
G01X6431668Y2807179D02*
G03X6431668Y817183I765229J-994998D01*
G01Y2807179D01*
G37*
G01X7101840Y4175760D02*
G01X7101840Y4348480D01*
G01X7190740Y4259580D02*
G01X7023100Y4259580D01*
G01X7970520Y5491734D02*
G03X7992364Y5491734I10922J-1250287D01*
G36*
G01X8737597Y3244502D02*
G03X8737597Y5234498I-765229J994998D01*
G01Y3244502D01*
G37*
G01X1488780Y811195D02*
G01X2676787Y811195D01*
G01X2676802Y1031497D02*
G01X2676802Y11496D01*
G01X1488780Y1031499D02*
G01X2676787Y1031499D01*
G01X1488780Y11499D02*
G01X2676787Y11499D01*
G01X1488780Y1031499D02*
G01X1488780Y11499D01*
G01X4379100Y1056599D02*
G01X4379100Y416598D01*
G01X4379100Y1056599D02*
G01X3571100Y1056599D01*
G01X4257101Y970600D02*
G01X4257101Y1056599D01*
G01X3693099Y970600D02*
G01X4257101Y970600D01*
G01X3571100Y416598D02*
G01X4379100Y416598D01*
G01X3693099Y970600D02*
G01X3693102Y1056599D01*
G01X3571100Y1056599D02*
G01X3571100Y416598D01*
G01X5598300Y1043899D02*
G01X5598300Y403898D01*
G01X5598300Y1043899D02*
G01X4790300Y1043899D01*
G01X5476301Y957900D02*
G01X5476301Y1043899D01*
G01X4912299Y957900D02*
G01X5476301Y957900D01*
G01X4790300Y403898D02*
G01X5598300Y403898D01*
G01X4912299Y957900D02*
G01X4912302Y1043899D01*
G01X4790300Y1043899D02*
G01X4790300Y403898D01*
G54D11*
G01X375000Y9225000D02*
G01X507080Y9357080D01*
G01X512160D01*
G01X375000Y9225000D02*
G01X242920Y9092920D01*
G01X237840D01*
G01X375000Y9225000D02*
G01X510692Y9089308D01*
G01X375000Y9233742D02*
G01X248000Y9360742D01*
G01Y9362160D01*
G01X375000Y470000D02*
G01X507080Y602080D01*
G01X512160D01*
G01X375000Y470000D02*
G01X242920Y337920D01*
G01X237840D01*
G01X375000Y470000D02*
G01X510692Y334308D01*
G01X375000Y478742D02*
G01X248000Y605742D01*
G01Y607160D01*
G01X14590000Y470000D02*
G01X14722080Y602080D01*
G01X14727160D01*
G01X14590000Y470000D02*
G01X14457920Y337920D01*
G01X14452840D01*
G01X14590000Y470000D02*
G01X14725692Y334308D01*
G01X14590000Y478742D02*
G01X14463000Y605742D01*
G01Y607160D01*
G01X14590000Y9225000D02*
G01X14722080Y9357080D01*
G01X14727160D01*
G01X14590000Y9225000D02*
G01X14457920Y9092920D01*
G01X14452840D01*
G01X14590000Y9225000D02*
G01X14725692Y9089308D01*
G01X14590000Y9233742D02*
G01X14463000Y9360742D01*
G01Y9362160D01*
G54D13*
G01X8207080Y747695D02*
G01X9395087Y747695D01*
G01X9395102Y967997D02*
G01X9395102Y-52004D01*
G01X8207080Y967999D02*
G01X9395087Y967999D01*
G01X8207080Y-52001D02*
G01X9395087Y-52001D01*
G01X8207080Y967999D02*
G01X8207080Y-52001D01*
G01X12589789Y7415124D02*
G01X12589789Y7235114D01*
G01X12679782Y7325131D02*
G01X12499797Y7325131D01*
G36*
G01X12799799Y6515001D02*
G01X11919801Y6515001D01*
G01X12069801Y6405001D01*
G01X12199800Y6355001D01*
G01X12319800Y6345001D01*
G01X12519800Y6355001D01*
G01X12689799Y6415001D01*
G01X12799799Y6515001D01*
G37*
G01X12221489Y9497924D02*
G01X12221489Y9317914D01*
G01X12311482Y9407931D02*
G01X12131497Y9407931D01*
G36*
G01X12431499Y8597801D02*
G01X11551501Y8597801D01*
G01X11701501Y8487801D01*
G01X11831500Y8437801D01*
G01X11951500Y8427801D01*
G01X12151500Y8437801D01*
G01X12321499Y8497801D01*
G01X12431499Y8597801D01*
G37*
G01X11235792Y6221847D02*
G01X11226800Y6221847D01*
G01X11593797Y5793801D02*
G01X11226800Y5793801D01*
G01X11226800Y5793801D02*
G01X11226800Y8013700D01*
G01X11226800Y8013700D02*
G01X11593797Y8013700D01*
G01X11593797Y8023802D02*
G01X11593797Y5793801D01*
G01X11593797Y6221847D02*
G01X11471808Y6221847D01*
G01X11140780Y646095D02*
G01X12328787Y646095D01*
G01X12328802Y866397D02*
G01X12328802Y-153604D01*
G01X11140780Y866399D02*
G01X12328787Y866399D01*
G01X11140780Y-153601D02*
G01X12328787Y-153601D01*
G01X11140780Y866399D02*
G01X11140780Y-153601D01*
G36*
G01X12929398Y5989500D02*
G01X12859400Y5989500D01*
G01Y6009503D01*
G01X12939400D01*
G01Y5989500D01*
G01X12929398D01*
G37*
G36*
G01X12889398Y5969500D02*
G01X12889398Y6039500D01*
G01X12909398D01*
G01Y5959500D01*
G01X12889398D01*
G01Y5969500D01*
G37*
G36*
G01X12879400Y6239500D02*
G01X12879400Y6309500D01*
G01X12899400D01*
G01Y6229500D01*
G01X12879400D01*
G01Y6239500D01*
G37*
G36*
G01X12814300Y6350000D02*
G01X13131800Y6350000D01*
G01X13131162Y6350638D01*
G03X12979400Y6413500I-151762J-151760D01*
G01X12962341D01*
G03X12839700Y6362700I0J-173441D01*
G01X12814300Y6350000D01*
G37*
G36*
G01X12737302Y8488500D02*
G01X12807300Y8488500D01*
G01Y8468497D01*
G01X12727300D01*
G01Y8488500D01*
G01X12737302D01*
G37*
G36*
G01X12777302Y8508500D02*
G01X12777302Y8438500D01*
G01X12757302D01*
G01Y8518500D01*
G01X12777302D01*
G01Y8508500D01*
G37*
G36*
G01X12787300Y8238500D02*
G01X12787300Y8168500D01*
G01X12767300D01*
G01Y8248500D01*
G01X12787300D01*
G01Y8238500D01*
G37*
G36*
G01X12852400Y8128000D02*
G01X12534900Y8128000D01*
G01X12535538Y8127362D01*
G03X12687300Y8064500I151762J151760D01*
G01X12704359D01*
G03X12827000Y8115300I-0J173441D01*
G01X12852400Y8128000D01*
G37*
G01X10767200Y713699D02*
G01X10767200Y73698D01*
G01X10767200Y713699D02*
G01X9959200Y713699D01*
G01X10645201Y627700D02*
G01X10645201Y713699D01*
G01X10081199Y627700D02*
G01X10645201Y627700D01*
G01X9959200Y73698D02*
G01X10767200Y73698D01*
G01X10081199Y627700D02*
G01X10081202Y713699D01*
G01X9959200Y713699D02*
G01X9959200Y73698D01*
G01X13904100Y726399D02*
G01X13904100Y86398D01*
G01X13904100Y726399D02*
G01X13096100Y726399D01*
G01X13782101Y640400D02*
G01X13782101Y726399D01*
G01X13218099Y640400D02*
G01X13782101Y640400D01*
G01X13096100Y86398D02*
G01X13904100Y86398D01*
G01X13218099Y640400D02*
G01X13218102Y726399D01*
G01X13096100Y726399D02*
G01X13096100Y86398D01*
G01X838200Y8559800D02*
G01X838200Y9410700D01*
G01X5588000D01*
G01Y8610600D01*
G01X5575300Y8597900D01*
G01X5600700Y2305050D02*
G01X5600700Y1454150D01*
G01X850900D01*
G01Y2254250D01*
G01X863600Y2266950D01*
G04 PolygonModel End*

G04 Rect Start*
G54D15*
G01X7533700Y9910500D02*
G01X7533700Y5710500D01*
G01X11033700D01*
G01Y9910500D01*
G01X7533700D01*
G54D13*
G01X12014200Y5562600D02*
G01X9474200Y5562600D01*
G01Y990600D01*
G01X12014200D01*
G01Y5562600D01*
G01X14732000Y5575300D02*
G01X12192000Y5575300D01*
G01Y1003300D01*
G01X14732000D01*
G01Y5575300D01*
G01X12700Y7912100D02*
G01X12700Y2946400D01*
G01X6337300D01*
G01Y7912100D01*
G01X12700D01*
G04 Rect End*

G04 Circle Start*
G54D17*
G01X13550303Y9030746D02*
G03X13580306Y9030746I15001J0D01*
G03X13550303I-15001J0D01*
G54D11*
G01X185008Y9225000D02*
G03X564992Y9225000I189992J0D01*
G03X185008I-189992J0D01*
G01X185008Y470000D02*
G03X564992Y470000I189992J0D01*
G03X185008I-189992J0D01*
G01X14400008Y470000D02*
G03X14779992Y470000I189992J0D01*
G03X14400008I-189992J0D01*
G01X14400008Y9225000D02*
G03X14779992Y9225000I189992J0D01*
G03X14400008I-189992J0D01*
G54D13*
G01X11719789Y6985127D02*
G03X13019811Y6985127I650011J0D01*
G03X11719789I-650011J0D01*
G01X11351489Y9067927D02*
G03X12651511Y9067927I650011J0D01*
G03X11351489I-650011J0D01*
G01X12729388Y6159500D02*
G03X13229412Y6159500I250012J0D01*
G03X12729388I-250012J0D01*
G01X12437288Y8318500D02*
G03X12937312Y8318500I250012J0D01*
G03X12437288I-250012J0D01*
G04 Circle End*

M02*
